<svg id="svg" version="1.1" xmlns="http://www.w3.org/2000/svg" xmlns:xlink="http://www.w3.org/1999/xlink" width="400" height="271.356783919598" viewBox="0, 0, 400,271.356783919598"><g id="svgg"><path id="path0" d="M28.765 0.271 C 28.765 0.421,28.276 0.543,27.677 0.543 C 26.925 0.543,26.446 0.710,26.124 1.085 C 25.812 1.450,25.324 1.628,24.634 1.628 C 23.904 1.628,23.609 1.745,23.609 2.035 C 23.609 2.259,23.375 2.442,23.089 2.442 C 22.280 2.442,21.710 2.735,21.710 3.150 C 21.710 3.399,21.393 3.528,20.778 3.528 C 20.085 3.528,19.803 3.667,19.674 4.071 C 19.580 4.369,19.341 4.613,19.145 4.613 C 18.949 4.613,18.724 4.858,18.646 5.156 C 18.561 5.481,18.276 5.699,17.936 5.699 C 17.623 5.699,17.368 5.828,17.368 5.986 C 17.368 6.144,17.258 6.206,17.125 6.123 C 16.991 6.041,16.812 6.156,16.726 6.379 C 16.641 6.602,16.384 6.784,16.155 6.784 C 15.926 6.784,15.739 6.967,15.739 7.191 C 15.739 7.417,15.498 7.598,15.197 7.598 C 14.835 7.598,14.654 7.779,14.654 8.141 C 14.654 8.443,14.473 8.684,14.247 8.684 C 14.023 8.684,13.840 8.806,13.840 8.955 C 13.840 9.104,13.596 9.471,13.297 9.769 C 12.999 10.068,12.832 10.312,12.927 10.312 C 13.021 10.312,12.777 10.565,12.384 10.875 C 11.962 11.206,11.669 11.707,11.669 12.096 C 11.669 12.505,11.512 12.754,11.255 12.754 C 11.028 12.754,10.723 13.067,10.577 13.449 C 10.432 13.831,10.197 14.072,10.055 13.984 C 9.913 13.897,9.716 14.256,9.617 14.782 C 9.514 15.332,9.277 15.739,9.061 15.739 C 8.812 15.739,8.684 16.057,8.684 16.671 C 8.684 17.364,8.545 17.647,8.141 17.775 C 7.697 17.916,7.598 18.185,7.598 19.254 C 7.598 20.288,7.496 20.588,7.106 20.690 C 6.632 20.813,6.561 21.173,6.437 24.080 C 6.427 24.314,6.322 24.332,6.088 24.137 C 5.600 23.732,5.555 24.930,5.490 40.009 C 5.458 47.654,5.328 53.354,5.186 53.442 C 4.692 53.748,4.606 55.421,5.093 55.233 C 5.493 55.080,5.494 55.109,5.108 55.551 C 4.612 56.120,4.467 60.516,4.945 60.516 C 5.114 60.516,5.097 60.667,4.901 60.903 C 4.725 61.115,4.602 61.451,4.629 61.649 C 4.972 64.184,4.550 125.116,4.191 124.818 C 3.842 124.528,3.783 124.534,3.852 124.851 C 3.897 125.063,4.118 125.385,4.342 125.567 C 4.703 125.861,4.702 125.900,4.332 125.907 C 4.102 125.912,3.896 126.163,3.873 126.464 C 3.851 126.766,3.947 126.942,4.087 126.856 C 4.227 126.769,4.342 126.817,4.342 126.963 C 4.342 127.108,4.212 127.271,4.054 127.324 C 3.873 127.384,3.737 128.861,3.689 131.271 C 3.642 133.636,3.711 135.061,3.869 134.964 C 4.009 134.877,3.990 135.057,3.826 135.364 C 3.617 135.754,3.529 140.856,3.534 152.222 L 3.542 168.521 4.213 168.521 C 4.583 168.521,4.885 168.399,4.885 168.250 C 4.885 168.100,5.056 167.978,5.266 167.978 C 5.585 167.978,8.600 166.258,10.041 165.255 C 10.425 164.987,12.132 163.954,17.736 160.598 C 19.058 159.806,20.462 158.948,20.856 158.691 C 21.251 158.433,21.966 158.006,22.445 157.741 C 22.924 157.476,24.207 156.711,25.295 156.041 C 27.863 154.459,27.901 154.436,29.760 153.342 C 30.631 152.830,31.404 152.330,31.479 152.231 C 31.554 152.132,31.938 151.880,32.333 151.670 C 33.156 151.233,36.382 149.317,37.313 148.711 C 37.658 148.487,38.761 147.815,39.765 147.218 C 40.769 146.621,41.868 145.950,42.207 145.726 C 42.547 145.502,43.640 144.830,44.636 144.233 C 45.633 143.636,46.852 142.904,47.345 142.605 C 47.839 142.307,49.363 141.391,50.732 140.570 C 52.102 139.749,53.551 138.867,53.952 138.610 C 54.353 138.353,55.109 137.892,55.631 137.585 C 56.153 137.278,56.947 136.792,57.395 136.505 C 57.843 136.218,58.476 135.824,58.801 135.630 C 61.622 133.953,63.136 133.036,63.739 132.640 C 64.130 132.383,64.878 131.922,65.400 131.615 C 65.923 131.308,66.716 130.820,67.164 130.530 C 67.612 130.241,68.345 129.815,68.792 129.585 C 69.240 129.354,70.767 128.443,72.185 127.559 C 73.602 126.675,75.434 125.555,76.255 125.070 C 77.076 124.585,77.809 124.119,77.883 124.034 C 77.958 123.950,78.385 123.677,78.833 123.427 C 79.281 123.178,80.423 122.524,81.370 121.974 C 83.261 120.877,83.816 120.859,85.882 121.823 C 86.483 122.104,87.768 122.668,88.738 123.078 C 89.708 123.487,91.052 124.060,91.723 124.351 C 92.395 124.641,93.189 124.979,93.487 125.102 C 93.786 125.224,94.610 125.579,95.319 125.891 C 97.484 126.844,98.799 127.415,101.628 128.630 C 104.955 130.058,106.535 130.742,107.598 131.214 C 108.046 131.413,110.611 132.510,113.297 133.652 C 115.984 134.794,118.548 135.892,118.996 136.094 C 119.444 136.295,120.237 136.641,120.760 136.862 C 122.171 137.461,127.499 139.752,128.901 140.362 C 129.573 140.654,130.519 141.065,131.004 141.274 C 131.489 141.484,132.283 141.830,132.768 142.043 C 133.253 142.257,134.993 142.997,136.635 143.687 C 139.590 144.931,139.964 145.094,142.605 146.293 C 143.351 146.632,144.328 147.062,144.776 147.249 C 146.154 147.823,153.407 150.905,154.342 151.312 C 154.827 151.523,155.621 151.867,156.106 152.077 C 156.591 152.287,157.537 152.697,158.209 152.988 C 158.881 153.280,160.224 153.851,161.194 154.256 C 162.164 154.662,163.355 155.168,163.840 155.380 C 164.325 155.593,165.119 155.938,165.604 156.148 C 166.089 156.357,167.043 156.784,167.725 157.097 C 168.406 157.410,169.055 157.666,169.166 157.666 C 169.277 157.666,170.406 158.155,171.674 158.752 C 172.943 159.349,174.057 159.837,174.150 159.837 C 174.243 159.837,174.847 160.081,175.491 160.380 C 176.669 160.926,178.488 161.736,180.122 162.441 C 180.607 162.651,181.401 162.996,181.886 163.209 C 182.371 163.421,183.989 164.101,185.482 164.720 C 186.974 165.339,188.562 166.009,189.009 166.210 C 189.457 166.410,190.556 166.896,191.452 167.289 C 192.347 167.681,193.404 168.180,193.800 168.398 C 194.197 168.615,194.677 168.792,194.868 168.792 C 195.059 168.792,195.742 169.037,196.387 169.335 C 197.636 169.914,199.204 170.615,201.289 171.527 C 201.998 171.837,202.902 172.265,203.298 172.477 C 203.694 172.689,204.211 172.863,204.445 172.863 C 204.680 172.863,205.271 173.107,205.760 173.405 C 206.249 173.703,206.822 173.947,207.034 173.947 C 207.246 173.948,207.613 174.114,207.848 174.317 C 208.084 174.520,208.835 174.822,209.517 174.987 C 211.152 175.384,212.239 175.115,215.739 173.444 C 216.411 173.124,217.110 172.862,217.292 172.862 C 217.473 172.863,218.084 172.632,218.648 172.349 C 219.213 172.067,221.445 171.145,223.609 170.301 C 227.652 168.723,228.243 168.480,230.469 167.477 C 231.182 167.156,231.901 166.893,232.067 166.893 C 232.233 166.893,232.871 166.663,233.485 166.383 C 234.841 165.762,236.768 164.971,238.942 164.142 C 239.837 163.800,240.811 163.364,241.105 163.171 C 241.400 162.979,241.869 162.822,242.149 162.822 C 242.428 162.822,242.981 162.642,243.377 162.422 C 244.155 161.989,250.192 159.477,251.967 158.847 C 253.036 158.469,254.208 157.962,255.721 157.226 C 256.143 157.020,256.632 156.848,256.806 156.843 C 256.981 156.838,257.612 156.598,258.209 156.309 C 258.806 156.021,259.501 155.781,259.753 155.776 C 260.006 155.771,260.282 155.653,260.368 155.515 C 260.453 155.377,260.979 155.118,261.537 154.940 C 262.095 154.762,262.978 154.432,263.501 154.206 C 265.791 153.215,266.721 152.832,268.250 152.251 C 269.145 151.911,270.374 151.402,270.981 151.121 C 271.588 150.840,272.266 150.611,272.487 150.611 C 272.709 150.611,273.006 150.501,273.148 150.367 C 273.290 150.233,274.248 149.790,275.278 149.382 L 277.151 148.641 279.213 149.252 C 280.347 149.588,281.642 149.984,282.090 150.131 C 282.537 150.278,283.575 150.556,284.396 150.750 C 285.217 150.943,286.255 151.226,286.703 151.379 C 287.151 151.532,288.433 151.914,289.552 152.229 C 290.672 152.544,292.198 152.973,292.944 153.183 C 293.691 153.392,295.156 153.811,296.201 154.114 C 297.246 154.417,298.986 154.912,300.068 155.216 C 301.150 155.519,302.921 156.016,304.003 156.321 C 305.085 156.626,306.581 157.047,307.327 157.258 C 308.073 157.468,309.478 157.873,310.448 158.158 C 311.418 158.443,313.128 158.939,314.247 159.260 C 315.366 159.582,317.564 160.219,319.132 160.676 C 320.699 161.133,322.664 161.662,323.498 161.851 C 324.333 162.040,325.183 162.298,325.388 162.424 C 325.593 162.551,326.253 162.740,326.856 162.845 C 327.458 162.950,328.318 163.165,328.765 163.324 C 329.213 163.483,330.495 163.869,331.615 164.182 C 334.761 165.061,337.282 165.777,339.213 166.341 C 341.462 166.997,344.663 167.905,346.404 168.382 C 349.287 169.171,351.882 169.907,353.053 170.268 C 353.725 170.474,355.495 170.973,356.988 171.375 C 358.480 171.777,360.103 172.277,360.593 172.485 C 361.083 172.693,361.791 172.863,362.167 172.863 C 362.542 172.863,363.184 173.036,363.592 173.247 C 364.001 173.459,364.942 173.752,365.682 173.899 C 366.423 174.046,367.395 174.291,367.843 174.445 C 368.290 174.598,369.543 174.972,370.627 175.277 C 372.914 175.920,375.581 176.681,378.361 177.484 C 379.442 177.796,380.936 178.218,381.682 178.423 C 382.429 178.627,383.894 179.041,384.939 179.342 C 385.984 179.643,387.234 179.966,387.717 180.060 C 388.201 180.155,388.666 180.344,388.751 180.482 C 388.836 180.620,389.173 180.731,389.500 180.729 C 389.827 180.727,390.889 180.966,391.859 181.262 C 392.829 181.557,394.303 181.996,395.135 182.237 C 395.966 182.479,396.789 182.764,396.963 182.871 C 397.196 183.016,397.289 187.065,397.319 198.385 C 397.342 206.811,397.466 213.987,397.595 214.333 C 397.737 214.715,397.719 215.166,397.548 215.486 C 397.320 215.912,397.358 216.015,397.752 216.032 C 398.036 216.045,398.096 216.110,397.897 216.191 C 397.444 216.374,397.465 217.225,397.933 217.613 C 398.331 217.943,398.378 212.360,398.374 164.790 C 398.372 151.743,398.460 145.997,398.659 145.997 C 398.817 145.997,398.876 146.111,398.790 146.250 C 398.705 146.389,398.740 146.568,398.870 146.648 C 399.000 146.728,399.084 146.370,399.059 145.853 C 399.033 145.335,399.089 144.912,399.183 144.912 C 399.277 144.912,399.346 144.362,399.338 143.691 C 399.329 143.020,399.215 142.470,399.085 142.470 C 398.955 142.470,398.971 142.317,399.121 142.130 C 399.299 141.908,399.409 130.187,399.440 108.141 C 399.469 87.317,399.585 74.457,399.744 74.401 C 400.129 74.265,400.056 71.985,399.661 71.800 C 399.389 71.673,399.389 71.610,399.661 71.483 C 400.097 71.280,400.165 28.765,399.729 28.765 C 399.573 28.765,399.457 27.943,399.457 26.840 C 399.457 25.143,399.393 24.898,398.915 24.773 C 398.427 24.646,398.136 23.201,398.340 21.913 C 398.357 21.801,398.189 21.710,397.965 21.710 C 397.741 21.710,397.558 21.475,397.558 21.189 C 397.558 20.380,397.265 19.810,396.850 19.810 C 396.597 19.810,396.472 19.487,396.472 18.835 C 396.472 18.088,396.345 17.826,395.929 17.718 C 395.629 17.639,395.387 17.348,395.387 17.065 C 395.387 16.784,395.244 16.554,395.070 16.554 C 394.896 16.554,394.828 16.480,394.918 16.389 C 395.081 16.226,394.886 15.924,393.962 14.906 C 393.701 14.618,393.487 14.207,393.487 13.993 C 393.487 13.326,388.626 8.684,387.927 8.684 C 387.511 8.684,387.318 8.533,387.344 8.228 C 387.366 7.952,387.112 7.701,386.703 7.593 C 386.330 7.495,386.051 7.286,386.083 7.128 C 386.115 6.970,385.730 6.764,385.227 6.670 C 384.724 6.575,384.244 6.318,384.160 6.098 C 384.075 5.879,383.701 5.699,383.329 5.699 C 382.929 5.699,382.532 5.476,382.361 5.156 C 382.155 4.771,381.793 4.613,381.114 4.613 C 380.545 4.613,380.226 4.503,380.326 4.341 C 380.557 3.967,379.294 3.528,377.985 3.528 C 377.389 3.528,376.969 3.418,377.052 3.285 C 377.357 2.791,376.144 2.616,371.642 2.504 C 369.104 2.441,366.906 2.296,366.757 2.182 C 366.201 1.757,364.993 1.607,364.989 1.962 C 364.986 2.199,364.902 2.179,364.722 1.900 C 364.474 1.516,364.341 1.697,364.422 2.307 C 364.442 2.456,364.277 2.346,364.056 2.063 C 363.723 1.637,363.581 1.607,363.238 1.893 C 362.957 2.126,362.822 2.139,362.822 1.934 C 362.822 1.716,359.659 1.633,351.493 1.637 C 269.573 1.682,255.088 1.619,255.088 1.218 C 255.088 0.729,254.374 0.678,254.182 1.153 C 254.073 1.425,254.041 1.425,254.024 1.153 C 254.012 0.967,253.812 0.814,253.580 0.814 C 253.313 0.814,253.232 0.940,253.360 1.153 C 253.516 1.413,253.473 1.421,253.173 1.187 C 252.359 0.550,251.537 0.473,251.113 0.993 C 250.889 1.268,250.789 1.330,250.891 1.131 C 251.017 0.887,250.913 0.787,250.572 0.823 C 250.295 0.853,250.007 0.857,249.932 0.833 C 249.289 0.629,246.404 0.636,246.404 0.843 C 246.404 1.011,246.229 1.011,245.916 0.843 C 245.609 0.679,226.638 0.572,194.695 0.555 C 162.046 0.538,143.930 0.434,143.872 0.264 C 143.738 -0.127,141.458 -0.061,141.271 0.339 C 141.144 0.611,141.081 0.611,140.954 0.339 C 140.750 -0.098,28.765 -0.166,28.765 0.271 M322.795 56.972 C 325.183 57.253,327.564 57.663,328.087 57.883 C 328.609 58.103,329.464 58.370,329.986 58.478 C 330.859 58.657,333.907 59.931,334.871 60.520 C 335.095 60.657,336.011 61.148,336.906 61.612 C 337.802 62.075,338.657 62.601,338.806 62.781 C 338.955 62.960,340.054 63.896,341.248 64.859 C 344.041 67.113,344.324 67.386,345.886 69.335 C 346.604 70.231,347.515 71.311,347.910 71.737 C 348.305 72.162,349.030 73.295,349.523 74.255 C 350.015 75.215,350.522 76.065,350.650 76.144 C 350.778 76.223,350.882 76.468,350.882 76.689 C 350.882 76.910,351.119 77.422,351.409 77.826 C 351.699 78.231,352.129 79.233,352.365 80.054 C 352.602 80.875,353.034 82.280,353.326 83.175 C 353.986 85.196,354.784 92.187,354.570 94.072 C 354.482 94.842,354.287 96.665,354.136 98.123 C 353.985 99.582,353.636 101.455,353.360 102.287 C 353.085 103.119,352.581 104.654,352.239 105.699 C 351.898 106.744,351.527 107.720,351.413 107.870 C 351.300 108.019,350.823 108.874,350.353 109.769 C 348.784 112.760,347.519 114.514,345.167 116.960 C 344.934 117.202,344.567 117.638,344.353 117.929 C 344.138 118.220,343.290 119.006,342.469 119.675 C 341.649 120.345,340.855 121.026,340.706 121.189 C 340.122 121.824,337.940 123.457,337.305 123.733 C 336.936 123.894,335.597 124.584,334.328 125.268 C 332.028 126.508,331.599 126.663,326.730 128.010 C 323.306 128.958,313.636 129.116,310.855 128.270 C 309.106 127.738,306.105 126.861,305.052 126.575 C 304.500 126.425,302.028 125.123,300.678 124.272 C 300.455 124.131,299.990 123.894,299.646 123.745 C 296.735 122.490,289.187 114.959,287.357 111.484 C 285.562 108.074,284.396 105.599,284.396 105.196 C 284.396 104.930,284.280 104.495,284.137 104.229 C 280.880 98.144,282.100 83.108,286.439 75.848 C 286.796 75.251,287.260 74.389,287.470 73.932 C 288.959 70.703,296.149 63.652,300.060 61.587 C 300.923 61.131,302.117 60.486,302.714 60.153 C 303.728 59.587,304.849 59.159,308.548 57.929 C 309.783 57.518,315.903 56.575,317.910 56.486 C 318.209 56.473,320.407 56.691,322.795 56.972 M82.929 124.475 C 82.644 124.552,81.850 125.007,81.165 125.486 C 80.479 125.965,79.705 126.437,79.444 126.535 C 79.184 126.632,78.296 127.144,77.472 127.671 C 76.648 128.198,75.913 128.630,75.840 128.630 C 75.767 128.630,75.099 129.057,74.355 129.579 C 73.612 130.102,72.890 130.529,72.749 130.529 C 72.609 130.529,72.329 130.682,72.126 130.868 C 71.924 131.055,71.435 131.391,71.040 131.615 C 69.251 132.628,67.152 133.900,67.028 134.045 C 66.954 134.132,66.588 134.360,66.214 134.551 C 65.841 134.741,65.091 135.166,64.548 135.495 C 64.005 135.823,62.845 136.512,61.970 137.026 C 61.096 137.540,60.339 138.059,60.289 138.179 C 60.240 138.300,60.069 138.399,59.910 138.399 C 59.752 138.399,58.938 138.855,58.101 139.413 C 56.702 140.345,55.849 140.860,54.410 141.641 C 54.111 141.802,53.501 142.174,53.053 142.466 C 52.605 142.758,51.811 143.247,51.289 143.554 C 50.767 143.860,49.851 144.416,49.254 144.788 C 48.657 145.161,47.985 145.547,47.761 145.647 C 47.537 145.747,46.805 146.209,46.133 146.676 C 45.461 147.142,44.729 147.610,44.505 147.716 C 44.281 147.821,43.650 148.180,43.102 148.513 C 42.554 148.846,41.291 149.607,40.294 150.204 C 39.298 150.801,38.158 151.499,37.762 151.755 C 37.366 152.012,36.676 152.408,36.228 152.635 C 35.780 152.863,34.681 153.536,33.786 154.131 C 32.890 154.726,31.770 155.429,31.297 155.693 C 29.562 156.662,27.269 158.042,27.137 158.197 C 27.062 158.284,26.696 158.509,26.323 158.697 C 25.950 158.884,24.790 159.582,23.745 160.247 C 22.700 160.913,21.561 161.582,21.214 161.734 C 20.867 161.886,20.401 162.193,20.177 162.416 C 19.954 162.640,19.603 162.822,19.397 162.822 C 19.191 162.822,18.925 162.975,18.806 163.161 C 18.687 163.348,17.917 163.857,17.096 164.292 C 16.275 164.727,14.749 165.640,13.704 166.320 C 11.953 167.461,11.068 167.996,9.634 168.780 C 9.335 168.943,8.640 169.349,8.089 169.681 C 7.538 170.013,6.408 170.691,5.579 171.187 C 3.723 172.296,3.867 171.504,3.675 181.682 C 3.588 186.309,3.401 195.224,3.260 201.493 C 2.822 220.984,2.853 244.478,3.320 245.596 C 3.537 246.115,3.799 246.993,3.903 247.548 C 4.227 249.282,6.452 253.373,8.298 255.631 C 10.453 258.267,16.215 262.662,17.540 262.682 C 17.710 262.685,18.198 262.869,18.626 263.092 C 19.053 263.315,19.623 263.498,19.891 263.499 C 20.160 263.500,20.771 263.709,21.248 263.964 C 22.032 264.381,24.004 264.448,41.384 264.642 C 51.981 264.760,65.780 264.963,72.049 265.091 C 78.318 265.220,94.742 265.353,108.548 265.387 C 122.354 265.421,142.748 265.548,153.867 265.670 C 164.986 265.791,188.921 266.025,207.056 266.189 C 283.594 266.882,301.562 267.054,325.645 267.321 C 359.658 267.699,373.172 267.599,374.592 266.959 C 375.170 266.699,375.903 266.485,376.220 266.484 C 376.538 266.483,377.111 266.319,377.494 266.119 C 377.877 265.919,378.548 265.666,378.985 265.556 C 379.422 265.446,379.915 265.244,380.081 265.107 C 380.247 264.969,380.980 264.539,381.711 264.151 C 382.442 263.763,383.100 263.365,383.175 263.268 C 383.250 263.170,383.799 262.726,384.396 262.281 C 386.179 260.950,388.266 258.664,389.739 256.430 C 390.868 254.717,392.130 252.079,392.130 251.433 C 392.130 251.195,392.331 250.546,392.577 249.991 C 393.431 248.059,393.735 240.071,394.008 212.368 C 394.283 184.471,394.294 184.803,393.044 184.803 C 392.661 184.803,391.963 184.629,391.493 184.416 C 391.023 184.204,390.088 183.910,389.417 183.764 C 388.745 183.617,387.829 183.376,387.381 183.227 C 386.934 183.078,385.651 182.694,384.532 182.374 C 383.412 182.055,381.764 181.555,380.868 181.263 C 379.973 180.971,378.932 180.733,378.554 180.733 C 378.177 180.733,377.628 180.565,377.333 180.360 C 377.039 180.154,376.248 179.896,375.577 179.785 C 374.905 179.674,374.026 179.414,373.623 179.208 C 373.220 179.002,372.548 178.832,372.130 178.831 C 371.712 178.831,371.030 178.652,370.613 178.435 C 370.196 178.217,369.280 177.922,368.578 177.779 C 367.875 177.636,366.811 177.332,366.214 177.103 C 365.617 176.873,364.848 176.681,364.505 176.674 C 364.162 176.668,363.551 176.493,363.148 176.287 C 362.745 176.081,361.886 175.824,361.240 175.717 C 360.593 175.609,359.738 175.351,359.340 175.144 C 358.942 174.936,358.246 174.765,357.794 174.764 C 357.343 174.763,356.732 174.595,356.438 174.390 C 356.143 174.184,355.353 173.926,354.681 173.815 C 354.009 173.705,353.224 173.490,352.937 173.339 C 352.649 173.187,351.733 172.904,350.901 172.710 C 348.552 172.161,346.187 171.504,345.590 171.235 C 345.026 170.980,342.775 170.347,340.434 169.784 C 339.688 169.604,338.811 169.308,338.485 169.125 C 338.159 168.942,337.618 168.792,337.283 168.792 C 336.947 168.792,335.932 168.561,335.026 168.279 C 334.120 167.996,332.463 167.502,331.343 167.181 C 330.224 166.860,328.758 166.427,328.087 166.220 C 327.415 166.012,326.461 165.762,325.965 165.664 C 325.470 165.565,324.738 165.314,324.337 165.105 C 323.937 164.896,323.331 164.724,322.990 164.724 C 322.649 164.723,321.917 164.529,321.362 164.294 C 320.807 164.058,319.803 163.765,319.132 163.643 C 318.460 163.521,317.544 163.291,317.096 163.132 C 316.649 162.973,315.366 162.585,314.247 162.271 C 310.868 161.321,308.458 160.618,307.598 160.330 C 307.151 160.179,306.113 159.906,305.292 159.722 C 304.471 159.539,303.555 159.259,303.256 159.102 C 302.958 158.944,302.185 158.727,301.538 158.620 C 300.892 158.513,300.037 158.255,299.639 158.047 C 299.240 157.840,298.679 157.669,298.391 157.668 C 298.103 157.667,297.065 157.413,296.084 157.104 C 295.104 156.795,293.691 156.372,292.944 156.164 C 287.152 154.552,283.956 153.629,282.904 153.266 C 282.456 153.112,281.479 152.839,280.733 152.660 C 279.986 152.481,279.032 152.190,278.612 152.015 C 277.677 151.625,276.617 151.602,276.391 151.968 C 276.298 152.117,275.684 152.375,275.026 152.540 C 274.368 152.706,273.688 153.011,273.516 153.219 C 273.344 153.426,272.974 153.596,272.693 153.596 C 272.412 153.596,271.727 153.840,271.170 154.138 C 270.613 154.437,269.969 154.681,269.739 154.681 C 269.509 154.681,269.079 154.840,268.785 155.035 C 268.491 155.229,267.334 155.733,266.214 156.154 C 264.221 156.905,263.308 157.275,261.533 158.053 C 261.048 158.265,260.195 158.580,259.637 158.751 C 259.080 158.922,258.554 159.176,258.468 159.314 C 258.383 159.453,258.119 159.566,257.883 159.566 C 257.647 159.566,256.952 159.795,256.339 160.076 C 255.726 160.357,254.552 160.860,253.731 161.194 C 252.910 161.528,251.737 162.031,251.124 162.312 C 250.510 162.593,249.839 162.826,249.631 162.831 C 249.424 162.836,249.017 163.019,248.727 163.238 C 248.437 163.457,248.028 163.636,247.818 163.636 C 247.608 163.636,247.051 163.809,246.581 164.020 C 246.111 164.231,244.932 164.728,243.962 165.125 C 242.992 165.521,241.852 166.021,241.430 166.234 C 241.007 166.447,240.517 166.621,240.340 166.621 C 240.164 166.621,239.563 166.866,239.006 167.164 C 238.450 167.463,237.839 167.707,237.650 167.707 C 237.460 167.707,236.850 167.951,236.293 168.250 C 235.736 168.548,235.050 168.792,234.770 168.792 C 234.489 168.792,234.107 168.976,233.921 169.199 C 233.735 169.423,233.383 169.607,233.138 169.607 C 232.893 169.607,232.236 169.851,231.679 170.149 C 231.123 170.448,230.449 170.692,230.183 170.692 C 229.918 170.692,229.459 170.858,229.165 171.060 C 228.870 171.263,228.160 171.582,227.586 171.769 C 227.012 171.955,226.218 172.277,225.822 172.484 C 225.426 172.691,224.903 172.860,224.660 172.861 C 224.417 172.862,224.066 173.046,223.881 173.270 C 223.695 173.494,223.339 173.677,223.091 173.677 C 222.842 173.677,222.159 173.921,221.574 174.220 C 220.988 174.518,220.352 174.763,220.159 174.763 C 219.966 174.763,219.352 175.007,218.795 175.305 C 218.238 175.604,217.592 175.848,217.358 175.848 C 217.125 175.848,216.818 175.958,216.676 176.092 C 216.534 176.226,215.563 176.657,214.518 177.050 C 213.474 177.443,212.273 177.944,211.850 178.163 C 210.951 178.630,210.481 178.661,209.833 178.297 C 209.574 178.152,208.569 177.715,207.598 177.327 C 206.628 176.939,205.285 176.374,204.613 176.073 C 203.942 175.771,203.026 175.366,202.578 175.173 C 202.130 174.979,201.201 174.564,200.513 174.249 C 199.825 173.934,199.077 173.677,198.850 173.677 C 198.624 173.677,198.286 173.494,198.100 173.270 C 197.915 173.046,197.577 172.863,197.351 172.863 C 197.124 172.863,196.376 172.605,195.688 172.291 C 195.000 171.976,193.948 171.501,193.351 171.235 C 192.754 170.969,191.703 170.493,191.015 170.179 C 190.327 169.864,189.564 169.607,189.319 169.607 C 189.074 169.607,188.874 169.486,188.874 169.339 C 188.874 169.192,188.324 168.933,187.653 168.764 C 186.981 168.595,186.431 168.359,186.431 168.239 C 186.431 168.119,186.035 167.935,185.550 167.830 C 185.064 167.725,184.240 167.416,183.718 167.143 C 183.195 166.870,182.188 166.397,181.479 166.092 C 178.574 164.839,177.577 164.390,176.892 164.022 C 176.495 163.810,175.930 163.636,175.636 163.636 C 175.341 163.636,174.948 163.453,174.763 163.229 C 174.577 163.005,174.271 162.822,174.084 162.822 C 173.896 162.822,173.026 162.506,172.149 162.121 C 170.658 161.464,170.163 161.247,167.910 160.268 C 167.425 160.057,166.334 159.568,165.485 159.182 C 164.636 158.796,163.766 158.480,163.551 158.480 C 163.336 158.480,163.008 158.297,162.822 158.073 C 162.636 157.849,162.209 157.666,161.872 157.666 C 161.536 157.666,161.108 157.483,160.923 157.259 C 160.737 157.035,160.409 156.852,160.194 156.852 C 159.979 156.852,159.109 156.536,158.260 156.150 C 157.411 155.764,156.289 155.261,155.767 155.032 C 155.244 154.803,154.365 154.386,153.813 154.106 C 153.261 153.825,152.574 153.596,152.286 153.596 C 151.998 153.596,151.613 153.416,151.431 153.196 C 151.248 152.976,150.688 152.719,150.186 152.625 C 149.684 152.530,149.132 152.283,148.959 152.075 C 148.786 151.866,148.459 151.696,148.233 151.696 C 148.006 151.696,147.258 151.439,146.570 151.124 C 145.882 150.809,144.953 150.390,144.505 150.192 C 144.057 149.994,143.007 149.518,142.172 149.136 C 141.337 148.753,140.451 148.440,140.204 148.440 C 139.958 148.440,139.756 148.322,139.756 148.179 C 139.756 148.035,139.272 147.788,138.682 147.629 C 138.091 147.470,137.543 147.234,137.464 147.106 C 137.384 146.978,136.903 146.795,136.394 146.699 C 135.885 146.604,135.319 146.346,135.137 146.126 C 134.954 145.906,134.619 145.726,134.393 145.726 C 134.166 145.726,133.418 145.468,132.730 145.154 C 132.042 144.839,130.991 144.364,130.393 144.098 C 129.796 143.832,128.745 143.356,128.057 143.042 C 127.369 142.727,126.621 142.469,126.394 142.469 C 126.168 142.469,125.830 142.286,125.645 142.062 C 125.459 141.839,125.108 141.656,124.865 141.656 C 124.622 141.657,123.935 141.418,123.338 141.127 C 122.741 140.836,121.642 140.335,120.896 140.015 C 120.149 139.694,119.172 139.268,118.725 139.068 C 118.277 138.868,117.300 138.442,116.554 138.123 C 115.807 137.803,114.695 137.307,114.082 137.020 C 113.468 136.734,112.781 136.499,112.554 136.499 C 112.328 136.499,111.990 136.316,111.805 136.092 C 111.619 135.868,111.281 135.685,111.055 135.685 C 110.828 135.685,110.080 135.428,109.392 135.113 C 108.704 134.798,107.653 134.326,107.056 134.064 C 104.820 133.083,104.038 132.738,102.849 132.209 C 102.178 131.910,101.329 131.576,100.962 131.468 C 100.596 131.360,100.130 131.105,99.925 130.900 C 99.721 130.696,99.307 130.529,99.005 130.529 C 98.703 130.529,98.131 130.351,97.735 130.134 C 97.102 129.787,95.999 129.286,92.944 127.957 C 92.497 127.762,91.567 127.345,90.879 127.031 C 90.191 126.716,89.443 126.459,89.217 126.459 C 88.990 126.459,88.659 126.283,88.481 126.069 C 88.303 125.855,87.771 125.594,87.299 125.491 C 86.826 125.387,86.193 125.144,85.893 124.951 C 85.242 124.533,83.655 124.278,82.929 124.475 M85.440 125.219 C 85.836 125.432,86.771 125.872,87.517 126.195 C 88.263 126.518,89.362 127.015,89.959 127.299 C 90.556 127.584,91.154 127.817,91.286 127.816 C 91.419 127.816,92.030 128.050,92.643 128.337 C 93.257 128.623,94.369 129.121,95.115 129.443 C 95.862 129.765,96.796 130.202,97.192 130.414 C 97.589 130.627,98.039 130.801,98.194 130.801 C 98.470 130.801,102.516 132.592,104.025 133.383 C 104.447 133.604,104.922 133.786,105.080 133.786 C 105.239 133.786,105.931 134.043,106.619 134.358 C 107.307 134.672,108.236 135.089,108.684 135.284 C 109.132 135.478,110.047 135.878,110.719 136.172 C 111.391 136.465,112.612 136.977,113.433 137.309 C 114.864 137.888,115.422 138.132,118.453 139.509 C 119.199 139.847,120.207 140.286,120.692 140.483 C 121.790 140.929,122.980 141.442,124.559 142.151 C 125.231 142.453,126.574 143.020,127.544 143.412 C 128.514 143.804,129.705 144.302,130.190 144.519 C 130.675 144.735,131.469 145.083,131.954 145.293 C 132.439 145.502,133.385 145.918,134.057 146.216 C 134.729 146.514,135.706 146.941,136.228 147.165 C 136.750 147.389,137.872 147.890,138.721 148.277 C 139.570 148.665,140.351 148.982,140.456 148.982 C 140.560 148.982,141.209 149.244,141.897 149.564 C 142.585 149.883,143.545 150.311,144.030 150.513 C 145.359 151.069,146.512 151.574,148.219 152.351 C 149.068 152.737,149.929 153.053,150.132 153.053 C 150.336 153.053,150.618 153.162,150.760 153.294 C 150.902 153.427,151.934 153.921,153.053 154.392 C 154.172 154.863,155.412 155.426,155.808 155.643 C 156.205 155.860,156.770 156.038,157.064 156.038 C 157.359 156.038,157.752 156.221,157.938 156.445 C 158.123 156.669,158.455 156.852,158.675 156.852 C 158.895 156.852,159.399 157.028,159.795 157.244 C 160.191 157.459,161.309 157.965,162.280 158.368 C 164.002 159.083,165.016 159.520,167.639 160.677 C 168.348 160.990,169.325 161.418,169.810 161.627 C 170.295 161.837,171.089 162.180,171.574 162.389 C 172.059 162.599,173.005 163.009,173.677 163.300 C 174.349 163.592,175.692 164.163,176.662 164.568 C 177.632 164.974,178.823 165.480,179.308 165.692 C 179.793 165.905,180.587 166.251,181.072 166.462 C 182.993 167.297,184.587 168.003,185.715 168.521 C 186.366 168.820,187.074 169.064,187.289 169.064 C 187.504 169.064,187.796 169.172,187.938 169.305 C 188.079 169.438,189.111 169.934,190.231 170.408 C 191.350 170.882,192.663 171.445,193.148 171.659 C 193.633 171.874,194.427 172.220,194.912 172.430 C 195.397 172.639,196.343 173.049,197.015 173.340 C 197.687 173.631,199.457 174.393,200.950 175.034 C 202.442 175.675,204.213 176.437,204.885 176.728 C 205.556 177.019,206.472 177.415,206.920 177.609 C 207.368 177.802,208.297 178.218,208.985 178.532 C 210.527 179.238,210.746 179.240,212.011 178.562 C 212.568 178.263,213.238 178.015,213.500 178.010 C 213.761 178.006,214.213 177.822,214.502 177.603 C 214.792 177.384,215.206 177.205,215.422 177.205 C 215.639 177.205,216.318 176.975,216.931 176.695 C 217.544 176.414,218.718 175.911,219.539 175.577 C 220.360 175.242,221.533 174.739,222.146 174.459 C 222.760 174.178,223.401 173.948,223.572 173.948 C 223.743 173.948,224.338 173.704,224.895 173.406 C 225.452 173.107,226.052 172.863,226.229 172.863 C 226.406 172.863,226.896 172.691,227.319 172.482 C 229.167 171.565,230.618 170.963,230.982 170.963 C 231.198 170.963,231.612 170.784,231.902 170.565 C 232.192 170.346,232.614 170.163,232.840 170.158 C 233.066 170.153,233.707 169.905,234.264 169.607 C 234.821 169.308,235.431 169.064,235.620 169.064 C 235.810 169.064,236.420 168.820,236.977 168.521 C 237.534 168.223,238.220 167.978,238.500 167.978 C 238.781 167.978,239.163 167.795,239.349 167.571 C 239.535 167.347,239.890 167.164,240.139 167.164 C 240.387 167.164,241.070 166.920,241.655 166.621 C 242.241 166.323,242.828 166.079,242.961 166.079 C 243.093 166.079,243.586 165.906,244.057 165.695 C 244.527 165.484,245.706 164.986,246.676 164.587 C 247.646 164.188,248.806 163.698,249.254 163.498 C 249.701 163.298,250.524 162.994,251.082 162.823 C 251.639 162.652,252.166 162.398,252.251 162.260 C 252.337 162.121,252.677 162.008,253.009 162.008 C 253.340 162.008,253.851 161.841,254.146 161.638 C 254.440 161.434,254.986 161.178,255.360 161.070 C 256.120 160.849,258.083 160.014,259.249 159.417 C 259.671 159.200,260.160 159.022,260.334 159.021 C 260.509 159.020,260.975 158.851,261.371 158.644 C 261.767 158.437,262.542 158.120,263.094 157.938 C 263.645 157.756,264.420 157.438,264.816 157.231 C 265.212 157.025,265.679 156.855,265.853 156.854 C 266.028 156.853,266.516 156.680,266.939 156.470 C 267.361 156.259,268.379 155.817,269.199 155.487 C 270.020 155.157,271.194 154.658,271.807 154.377 C 272.421 154.097,273.096 153.867,273.307 153.867 C 273.519 153.867,273.933 153.706,274.227 153.509 C 275.475 152.676,277.344 152.175,278.100 152.472 C 278.503 152.630,279.322 152.841,279.919 152.942 C 280.516 153.042,281.128 153.221,281.279 153.339 C 281.430 153.458,282.285 153.742,283.178 153.970 C 284.072 154.198,285.658 154.629,286.703 154.928 C 287.748 155.227,289.152 155.613,289.824 155.786 C 290.495 155.959,291.446 156.270,291.936 156.476 C 292.426 156.683,293.070 156.852,293.367 156.852 C 293.665 156.852,294.603 157.096,295.452 157.395 C 296.301 157.693,297.245 157.938,297.548 157.939 C 297.852 157.940,298.428 158.112,298.828 158.321 C 299.229 158.530,299.961 158.783,300.457 158.884 C 300.952 158.984,302.151 159.310,303.121 159.607 C 304.091 159.904,305.495 160.317,306.242 160.525 C 310.044 161.584,311.744 162.073,312.483 162.321 C 312.931 162.471,313.969 162.759,314.790 162.961 C 317.700 163.677,319.549 164.220,320.394 164.604 C 320.864 164.818,321.479 164.993,321.760 164.993 C 322.041 164.993,322.966 165.237,323.815 165.536 C 324.665 165.834,325.613 166.079,325.923 166.079 C 326.232 166.079,326.833 166.258,327.258 166.478 C 327.682 166.698,328.562 166.960,329.212 167.061 C 329.862 167.162,330.634 167.409,330.929 167.611 C 331.223 167.813,331.834 167.979,332.286 167.980 C 332.737 167.981,333.433 168.152,333.831 168.359 C 334.230 168.567,335.084 168.825,335.731 168.932 C 336.377 169.039,337.124 169.241,337.391 169.381 C 337.955 169.677,341.185 170.584,343.148 170.997 C 343.894 171.154,344.646 171.400,344.819 171.543 C 344.992 171.685,345.724 171.906,346.447 172.033 C 347.170 172.160,348.128 172.394,348.575 172.553 C 350.149 173.110,352.118 173.707,353.596 174.075 C 354.417 174.279,355.943 174.701,356.988 175.013 C 358.033 175.325,359.437 175.716,360.109 175.884 C 360.780 176.051,361.757 176.352,362.280 176.552 C 362.802 176.753,363.718 176.998,364.315 177.097 C 364.912 177.196,365.730 177.444,366.133 177.648 C 366.536 177.852,367.185 178.019,367.576 178.019 C 367.966 178.019,368.548 178.160,368.869 178.331 C 369.190 178.503,370.312 178.875,371.361 179.158 C 372.411 179.440,373.881 179.846,374.627 180.060 C 375.373 180.273,376.839 180.689,377.883 180.984 C 378.928 181.279,380.638 181.780,381.682 182.098 C 382.727 182.417,384.254 182.840,385.075 183.040 C 385.896 183.240,386.934 183.530,387.381 183.686 C 388.073 183.926,390.171 184.538,392.944 185.307 L 393.623 185.495 393.623 198.785 C 393.623 214.077,393.008 245.346,392.668 247.354 C 392.225 249.970,390.863 253.994,390.299 254.355 C 390.112 254.475,389.957 254.719,389.954 254.898 C 389.944 255.573,385.783 261.006,385.248 261.042 C 385.119 261.051,384.443 261.536,383.745 262.121 C 383.047 262.705,381.883 263.499,381.158 263.884 C 380.433 264.270,379.704 264.698,379.538 264.835 C 379.373 264.973,378.871 265.166,378.425 265.265 C 377.978 265.365,377.246 265.607,376.798 265.803 C 375.864 266.214,373.160 266.770,370.920 267.013 C 369.246 267.194,338.114 266.947,307.598 266.509 C 297.001 266.357,277.157 266.216,263.501 266.197 C 249.844 266.178,232.992 266.062,226.052 265.941 C 219.111 265.820,194.566 265.593,171.506 265.437 C 148.446 265.280,119.818 265.010,107.888 264.837 C 95.958 264.664,72.268 264.429,55.242 264.316 C 19.939 264.080,20.275 264.107,15.787 261.234 C 15.141 260.821,14.408 260.407,14.158 260.313 C 13.543 260.084,12.168 258.857,9.974 256.581 C 7.427 253.938,7.336 253.824,6.541 252.268 C 6.152 251.506,5.713 250.699,5.565 250.475 C 3.254 246.976,2.912 240.421,3.645 213.770 C 3.880 205.226,4.073 194.328,4.073 189.552 C 4.072 176.738,4.290 172.373,4.938 172.167 C 5.220 172.078,6.269 171.454,7.271 170.780 C 8.935 169.661,9.928 169.066,11.908 168.004 C 12.299 167.795,12.680 167.550,12.754 167.461 C 12.829 167.373,13.218 167.117,13.619 166.893 C 14.019 166.669,15.461 165.814,16.822 164.993 C 18.184 164.172,19.705 163.256,20.203 162.958 C 20.700 162.659,21.806 161.988,22.659 161.465 C 24.532 160.320,25.523 159.724,27.596 158.498 C 28.463 157.986,29.236 157.474,29.314 157.362 C 29.391 157.249,29.758 157.026,30.128 156.865 C 30.498 156.704,31.129 156.361,31.531 156.102 C 31.933 155.843,33.093 155.129,34.109 154.516 C 36.011 153.368,38.809 151.645,40.106 150.823 C 40.510 150.566,41.208 150.170,41.655 149.941 C 42.103 149.713,42.794 149.312,43.190 149.051 C 44.020 148.503,46.972 146.723,48.168 146.049 C 48.616 145.797,49.043 145.521,49.118 145.437 C 49.193 145.352,49.969 144.864,50.844 144.351 C 51.719 143.839,52.841 143.175,53.338 142.877 C 53.836 142.578,54.952 141.914,55.819 141.402 C 56.686 140.889,57.456 140.398,57.531 140.311 C 57.605 140.223,57.972 140.000,58.345 139.815 C 58.718 139.630,59.347 139.266,59.743 139.007 C 60.594 138.449,63.563 136.661,64.722 136.008 C 65.170 135.756,65.597 135.477,65.672 135.388 C 65.746 135.299,66.135 135.055,66.535 134.845 C 67.404 134.391,70.606 132.485,71.609 131.826 C 72.000 131.569,72.748 131.107,73.270 130.801 C 73.792 130.494,74.586 130.008,75.034 129.720 C 76.232 128.952,77.119 128.428,77.883 128.038 C 78.256 127.848,79.118 127.308,79.798 126.839 C 80.478 126.370,81.292 125.904,81.605 125.805 C 81.919 125.705,82.324 125.445,82.505 125.227 C 82.926 124.720,84.507 124.716,85.440 125.219 M397.349 235.550 C 397.349 236.072,397.405 236.286,397.473 236.024 C 397.542 235.763,397.542 235.336,397.473 235.075 C 397.405 234.813,397.349 235.027,397.349 235.550 M396.931 240.824 C 396.620 241.059,396.546 241.262,396.727 241.374 C 396.886 241.472,397.015 241.809,397.015 242.124 C 397.015 243.038,397.320 242.479,397.405 241.409 C 397.447 240.873,397.469 240.438,397.452 240.443 C 397.436 240.448,397.201 240.619,396.931 240.824 M397.106 243.537 C 397.189 243.752,397.110 243.986,396.932 244.059 C 396.750 244.133,396.809 244.200,397.066 244.212 C 397.363 244.226,397.510 244.042,397.483 243.691 C 397.461 243.392,397.333 243.148,397.200 243.148 C 397.066 243.148,397.024 243.323,397.106 243.537 M30.122 267.849 C 29.301 267.946,28.778 268.045,28.960 268.070 C 29.157 268.096,29.219 268.306,29.113 268.589 C 28.957 269.005,28.992 269.017,29.393 268.691 C 29.645 268.486,29.851 268.441,29.851 268.590 C 29.851 268.991,60.586 268.955,60.851 268.553 C 60.991 268.339,61.051 268.350,61.054 268.589 C 61.057 268.822,61.567 268.928,62.687 268.928 C 63.582 268.928,64.315 268.817,64.315 268.682 C 64.315 268.547,64.040 268.493,63.704 268.563 C 63.127 268.684,63.130 268.669,63.772 268.283 C 64.387 267.914,63.753 267.873,56.988 267.842 C 52.883 267.823,45.495 267.778,40.570 267.740 C 35.645 267.703,30.943 267.752,30.122 267.849 M67.503 268.121 C 68.301 268.444,68.283 268.614,67.467 268.458 C 67.112 268.390,66.738 268.468,66.637 268.631 C 66.518 268.825,66.785 268.928,67.403 268.928 C 68.579 268.928,68.750 267.979,67.585 267.913 C 66.909 267.875,66.907 267.880,67.503 268.121 M69.565 268.725 C 69.495 268.836,70.110 268.928,70.931 268.928 C 71.752 268.928,72.480 268.836,72.549 268.725 C 72.617 268.613,72.002 268.521,71.182 268.521 C 70.361 268.521,69.634 268.613,69.565 268.725 M76.391 268.657 L 75.034 268.843 76.459 268.885 C 77.256 268.909,77.883 268.809,77.883 268.657 C 77.883 268.507,77.853 268.405,77.815 268.428 C 77.778 268.451,77.137 268.554,76.391 268.657 M80.122 268.844 C 80.383 268.912,80.811 268.912,81.072 268.844 C 81.333 268.776,81.119 268.720,80.597 268.720 C 80.075 268.720,79.861 268.776,80.122 268.844 M98.558 268.959 C 98.040 269.153,97.924 269.742,98.404 269.742 C 98.478 269.742,98.464 269.620,98.372 269.471 C 98.280 269.322,98.333 269.199,98.491 269.199 C 98.650 269.199,98.779 269.346,98.779 269.525 C 98.779 269.764,98.859 269.770,99.081 269.549 C 99.573 269.057,99.254 268.697,98.558 268.959 M101.149 268.879 C 100.736 268.926,100.468 269.079,100.554 269.218 C 100.780 269.584,100.302 269.529,99.919 269.145 C 99.665 268.892,99.593 268.894,99.593 269.154 C 99.593 269.658,100.413 269.869,100.986 269.511 C 101.298 269.316,101.493 269.300,101.493 269.469 C 101.493 269.619,101.691 269.742,101.933 269.742 C 102.296 269.742,102.313 269.670,102.030 269.329 C 101.743 268.983,101.760 268.944,102.133 269.087 C 102.378 269.181,102.578 269.382,102.578 269.533 C 102.578 269.685,102.785 269.641,103.037 269.436 C 103.324 269.204,103.422 269.187,103.298 269.393 C 103.144 269.651,110.777 269.721,138.389 269.715 C 163.028 269.710,173.677 269.621,173.677 269.420 C 173.677 269.223,173.783 269.220,174.016 269.412 C 174.203 269.565,175.455 269.678,176.798 269.662 C 178.141 269.647,178.902 269.589,178.489 269.534 C 178.076 269.479,177.804 269.328,177.884 269.199 C 178.060 268.913,176.868 268.901,136.655 268.783 C 116.179 268.723,104.475 268.784,104.158 268.954 C 103.886 269.099,103.664 269.119,103.664 268.997 C 103.664 268.773,102.530 268.720,101.149 268.879 M218.358 269.927 C 217.962 270.324,218.248 270.456,219.530 270.466 C 220.272 270.472,220.827 270.393,220.763 270.291 C 220.700 270.188,220.814 270.104,221.017 270.104 C 221.220 270.104,221.333 270.243,221.268 270.414 C 221.179 270.645,229.421 270.713,253.790 270.681 C 289.742 270.634,287.507 270.669,287.037 270.162 C 286.793 269.900,286.649 269.886,286.503 270.111 C 286.360 270.334,286.303 270.326,286.300 270.081 C 286.295 269.655,285.309 269.634,285.049 270.055 C 284.921 270.263,284.975 270.295,285.210 270.149 C 285.460 269.995,285.501 270.035,285.347 270.284 C 285.173 270.565,285.059 270.545,284.798 270.188 C 284.459 269.724,218.819 269.467,218.358 269.927 M289.285 270.059 C 289.283 270.308,289.128 270.569,288.942 270.640 C 288.755 270.711,289.045 270.752,289.585 270.731 C 290.273 270.704,290.551 270.574,290.511 270.300 C 290.438 269.795,289.825 269.581,289.819 270.059 C 289.816 270.330,289.749 270.319,289.552 270.014 C 289.325 269.662,289.289 269.668,289.285 270.059 M291.452 270.552 C 290.929 270.716,291.063 270.757,292.034 270.729 C 292.727 270.708,293.239 270.600,293.171 270.488 C 293.022 270.241,292.364 270.266,291.452 270.552 M338.399 271.099 C 338.399 271.248,338.704 271.370,339.077 271.370 C 339.450 271.370,339.756 271.248,339.756 271.099 C 339.756 270.950,339.450 270.828,339.077 270.828 C 338.704 270.828,338.399 270.950,338.399 271.099 M340.570 271.099 C 340.570 271.276,345.409 271.370,354.545 271.370 C 363.682 271.370,368.521 271.276,368.521 271.099 C 368.521 270.922,363.682 270.828,354.545 270.828 C 345.409 270.828,340.570 270.922,340.570 271.099 " stroke="none" fill="#e4ecf3" fill-rule="evenodd"></path><path id="path1" d="M82.505 125.227 C 82.324 125.445,81.919 125.705,81.605 125.805 C 81.292 125.904,80.478 126.370,79.798 126.839 C 79.118 127.308,78.256 127.848,77.883 128.038 C 77.119 128.428,76.232 128.952,75.034 129.720 C 74.586 130.008,73.792 130.494,73.270 130.801 C 72.748 131.107,72.000 131.569,71.609 131.826 C 70.606 132.485,67.404 134.391,66.535 134.845 C 66.135 135.055,65.746 135.299,65.672 135.388 C 65.597 135.477,65.170 135.756,64.722 136.008 C 63.563 136.661,60.594 138.449,59.743 139.007 C 59.347 139.266,58.718 139.630,58.345 139.815 C 57.972 140.000,57.605 140.223,57.531 140.311 C 57.456 140.398,56.686 140.889,55.819 141.402 C 54.952 141.914,53.836 142.578,53.338 142.877 C 52.841 143.175,51.719 143.839,50.844 144.351 C 49.969 144.864,49.193 145.352,49.118 145.437 C 49.043 145.521,48.616 145.797,48.168 146.049 C 46.972 146.723,44.020 148.503,43.190 149.051 C 42.794 149.312,42.103 149.713,41.655 149.941 C 41.208 150.170,40.510 150.566,40.106 150.823 C 38.809 151.645,36.011 153.368,34.109 154.516 C 33.093 155.129,31.933 155.843,31.531 156.102 C 31.129 156.361,30.498 156.704,30.128 156.865 C 29.758 157.026,29.391 157.249,29.314 157.362 C 29.236 157.474,28.463 157.986,27.596 158.498 C 25.523 159.724,24.532 160.320,22.659 161.465 C 21.806 161.988,20.700 162.659,20.203 162.958 C 19.705 163.256,18.184 164.172,16.822 164.993 C 15.461 165.814,14.019 166.669,13.619 166.893 C 13.218 167.117,12.829 167.373,12.754 167.461 C 12.680 167.550,12.299 167.795,11.908 168.004 C 9.928 169.066,8.935 169.661,7.271 170.780 C 6.269 171.454,5.220 172.078,4.938 172.167 C 4.290 172.373,4.072 176.738,4.073 189.552 C 4.073 194.328,3.880 205.226,3.645 213.770 C 2.912 240.421,3.254 246.976,5.565 250.475 C 5.713 250.699,6.152 251.506,6.541 252.268 C 7.336 253.824,7.427 253.938,9.974 256.581 C 12.168 258.857,13.543 260.084,14.158 260.313 C 14.408 260.407,15.141 260.821,15.787 261.234 C 20.275 264.107,19.939 264.080,55.242 264.316 C 72.268 264.429,95.958 264.664,107.888 264.837 C 119.818 265.010,148.446 265.280,171.506 265.437 C 194.566 265.593,219.111 265.820,226.052 265.941 C 232.992 266.062,249.844 266.178,263.501 266.197 C 277.157 266.216,297.001 266.357,307.598 266.509 C 338.114 266.947,369.246 267.194,370.920 267.013 C 373.160 266.770,375.864 266.214,376.798 265.803 C 377.246 265.607,377.978 265.365,378.425 265.265 C 378.871 265.166,379.373 264.973,379.538 264.835 C 379.704 264.698,380.433 264.270,381.158 263.884 C 381.883 263.499,383.047 262.705,383.745 262.121 C 384.443 261.536,385.119 261.051,385.248 261.042 C 385.783 261.006,389.944 255.573,389.954 254.898 C 389.957 254.719,390.112 254.475,390.299 254.355 C 390.863 253.994,392.225 249.970,392.668 247.354 C 393.008 245.346,393.623 214.077,393.623 198.785 L 393.623 185.495 392.944 185.307 C 390.171 184.538,388.073 183.926,387.381 183.686 C 386.934 183.530,385.896 183.240,385.075 183.040 C 384.254 182.840,382.727 182.417,381.682 182.098 C 380.638 181.780,378.928 181.279,377.883 180.984 C 376.839 180.689,375.373 180.273,374.627 180.060 C 373.881 179.846,372.411 179.440,371.361 179.158 C 370.312 178.875,369.190 178.503,368.869 178.331 C 368.548 178.160,367.966 178.019,367.576 178.019 C 367.185 178.019,366.536 177.852,366.133 177.648 C 365.730 177.444,364.912 177.196,364.315 177.097 C 363.718 176.998,362.802 176.753,362.280 176.552 C 361.757 176.352,360.780 176.051,360.109 175.884 C 359.437 175.716,358.033 175.325,356.988 175.013 C 355.943 174.701,354.417 174.279,353.596 174.075 C 352.118 173.707,350.149 173.110,348.575 172.553 C 348.128 172.394,347.170 172.160,346.447 172.033 C 345.724 171.906,344.992 171.685,344.819 171.543 C 344.646 171.400,343.894 171.154,343.148 170.997 C 341.185 170.584,337.955 169.677,337.391 169.381 C 337.124 169.241,336.377 169.039,335.731 168.932 C 335.084 168.825,334.230 168.567,333.831 168.359 C 333.433 168.152,332.737 167.981,332.286 167.980 C 331.834 167.979,331.223 167.813,330.929 167.611 C 330.634 167.409,329.862 167.162,329.212 167.061 C 328.562 166.960,327.682 166.698,327.258 166.478 C 326.833 166.258,326.232 166.079,325.923 166.079 C 325.613 166.079,324.665 165.834,323.815 165.536 C 322.966 165.237,322.041 164.993,321.760 164.993 C 321.479 164.993,320.864 164.818,320.394 164.604 C 319.549 164.220,317.700 163.677,314.790 162.961 C 313.969 162.759,312.931 162.471,312.483 162.321 C 311.744 162.073,310.044 161.584,306.242 160.525 C 305.495 160.317,304.091 159.904,303.121 159.607 C 302.151 159.310,300.952 158.984,300.457 158.884 C 299.961 158.783,299.229 158.530,298.828 158.321 C 298.428 158.112,297.852 157.940,297.548 157.939 C 297.245 157.938,296.301 157.693,295.452 157.395 C 294.603 157.096,293.665 156.852,293.367 156.852 C 293.070 156.852,292.426 156.683,291.936 156.476 C 291.446 156.270,290.495 155.959,289.824 155.786 C 289.152 155.613,287.748 155.227,286.703 154.928 C 285.658 154.629,284.072 154.198,283.178 153.970 C 282.285 153.742,281.430 153.458,281.279 153.339 C 281.128 153.221,280.516 153.042,279.919 152.942 C 279.322 152.841,278.503 152.630,278.100 152.472 C 277.344 152.175,275.475 152.676,274.227 153.509 C 273.933 153.706,273.519 153.867,273.307 153.867 C 273.096 153.867,272.421 154.097,271.807 154.377 C 271.194 154.658,270.020 155.157,269.199 155.487 C 268.379 155.817,267.361 156.259,266.939 156.470 C 266.516 156.680,266.028 156.853,265.853 156.854 C 265.679 156.855,265.212 157.025,264.816 157.231 C 264.420 157.438,263.645 157.756,263.094 157.938 C 262.542 158.120,261.767 158.437,261.371 158.644 C 260.975 158.851,260.509 159.020,260.334 159.021 C 260.160 159.022,259.671 159.200,259.249 159.417 C 258.083 160.014,256.120 160.849,255.360 161.070 C 254.986 161.178,254.440 161.434,254.146 161.638 C 253.851 161.841,253.340 162.008,253.009 162.008 C 252.677 162.008,252.337 162.121,252.251 162.260 C 252.166 162.398,251.639 162.652,251.082 162.823 C 250.524 162.994,249.701 163.298,249.254 163.498 C 248.806 163.698,247.646 164.188,246.676 164.587 C 245.706 164.986,244.527 165.484,244.057 165.695 C 243.586 165.906,243.093 166.079,242.961 166.079 C 242.828 166.079,242.241 166.323,241.655 166.621 C 241.070 166.920,240.387 167.164,240.139 167.164 C 239.890 167.164,239.535 167.347,239.349 167.571 C 239.163 167.795,238.781 167.978,238.500 167.978 C 238.220 167.978,237.534 168.223,236.977 168.521 C 236.420 168.820,235.810 169.064,235.620 169.064 C 235.431 169.064,234.821 169.308,234.264 169.607 C 233.707 169.905,233.066 170.153,232.840 170.158 C 232.614 170.163,232.192 170.346,231.902 170.565 C 231.612 170.784,231.198 170.963,230.982 170.963 C 230.618 170.963,229.167 171.565,227.319 172.482 C 226.896 172.691,226.406 172.863,226.229 172.863 C 226.052 172.863,225.452 173.107,224.895 173.406 C 224.338 173.704,223.743 173.948,223.572 173.948 C 223.401 173.948,222.760 174.178,222.146 174.459 C 221.533 174.739,220.360 175.242,219.539 175.577 C 218.718 175.911,217.544 176.414,216.931 176.695 C 216.318 176.975,215.639 177.205,215.422 177.205 C 215.206 177.205,214.792 177.384,214.502 177.603 C 214.213 177.822,213.761 178.006,213.500 178.010 C 213.238 178.015,212.568 178.263,212.011 178.562 C 210.746 179.240,210.527 179.238,208.985 178.532 C 208.297 178.218,207.368 177.802,206.920 177.609 C 206.472 177.415,205.556 177.019,204.885 176.728 C 204.213 176.437,202.442 175.675,200.950 175.034 C 199.457 174.393,197.687 173.631,197.015 173.340 C 196.343 173.049,195.397 172.639,194.912 172.430 C 194.427 172.220,193.633 171.874,193.148 171.659 C 192.663 171.445,191.350 170.882,190.231 170.408 C 189.111 169.934,188.079 169.438,187.938 169.305 C 187.796 169.172,187.504 169.064,187.289 169.064 C 187.074 169.064,186.366 168.820,185.715 168.521 C 184.587 168.003,182.993 167.297,181.072 166.462 C 180.587 166.251,179.793 165.905,179.308 165.692 C 178.823 165.480,177.632 164.974,176.662 164.568 C 175.692 164.163,174.349 163.592,173.677 163.300 C 173.005 163.009,172.059 162.599,171.574 162.389 C 171.089 162.180,170.295 161.837,169.810 161.627 C 169.325 161.418,168.348 160.990,167.639 160.677 C 165.016 159.520,164.002 159.083,162.280 158.368 C 161.309 157.965,160.191 157.459,159.795 157.244 C 159.399 157.028,158.895 156.852,158.675 156.852 C 158.455 156.852,158.123 156.669,157.938 156.445 C 157.752 156.221,157.359 156.038,157.064 156.038 C 156.770 156.038,156.205 155.860,155.808 155.643 C 155.412 155.426,154.172 154.863,153.053 154.392 C 151.934 153.921,150.902 153.427,150.760 153.294 C 150.618 153.162,150.336 153.053,150.132 153.053 C 149.929 153.053,149.068 152.737,148.219 152.351 C 146.512 151.574,145.359 151.069,144.030 150.513 C 143.545 150.311,142.585 149.883,141.897 149.564 C 141.209 149.244,140.560 148.982,140.456 148.982 C 140.351 148.982,139.570 148.665,138.721 148.277 C 137.872 147.890,136.750 147.389,136.228 147.165 C 135.706 146.941,134.729 146.514,134.057 146.216 C 133.385 145.918,132.439 145.502,131.954 145.293 C 131.469 145.083,130.675 144.735,130.190 144.519 C 129.705 144.302,128.514 143.804,127.544 143.412 C 126.574 143.020,125.231 142.453,124.559 142.151 C 122.980 141.442,121.790 140.929,120.692 140.483 C 120.207 140.286,119.199 139.847,118.453 139.509 C 115.422 138.132,114.864 137.888,113.433 137.309 C 112.612 136.977,111.391 136.465,110.719 136.172 C 110.047 135.878,109.132 135.478,108.684 135.284 C 108.236 135.089,107.307 134.672,106.619 134.358 C 105.931 134.043,105.239 133.786,105.080 133.786 C 104.922 133.786,104.447 133.604,104.025 133.383 C 102.516 132.592,98.470 130.801,98.194 130.801 C 98.039 130.801,97.589 130.627,97.192 130.414 C 96.796 130.202,95.862 129.765,95.115 129.443 C 94.369 129.121,93.257 128.623,92.643 128.337 C 92.030 128.050,91.419 127.816,91.286 127.816 C 91.154 127.817,90.556 127.584,89.959 127.299 C 89.362 127.015,88.263 126.518,87.517 126.195 C 86.771 125.872,85.836 125.432,85.440 125.219 C 84.507 124.716,82.926 124.720,82.505 125.227 " stroke="none" fill="#c4eccc" fill-rule="evenodd"></path><path id="path2" d="M313.704 60.502 C 312.211 60.624,310.784 60.899,310.312 61.155 C 309.864 61.399,309.217 61.598,308.874 61.599 C 308.531 61.600,307.916 61.774,307.508 61.985 C 307.099 62.196,306.320 62.452,305.776 62.554 C 305.232 62.656,304.725 62.900,304.650 63.095 C 304.576 63.290,304.140 63.532,303.682 63.632 C 303.224 63.733,302.849 63.916,302.849 64.038 C 302.849 64.161,302.486 64.388,302.041 64.543 C 301.597 64.698,301.078 64.954,300.888 65.111 C 300.698 65.268,299.564 66.160,298.369 67.094 C 295.739 69.148,295.561 69.324,293.198 72.207 C 292.168 73.463,291.171 74.589,290.982 74.708 C 290.793 74.828,290.638 75.139,290.638 75.400 C 290.638 75.661,290.517 75.996,290.370 76.143 C 289.847 76.665,287.653 81.221,287.651 81.786 C 287.650 82.102,287.463 82.717,287.236 83.153 C 287.009 83.588,286.706 84.687,286.562 85.595 C 286.419 86.503,286.164 87.917,285.995 88.738 C 285.648 90.434,285.838 97.810,286.242 98.324 C 286.380 98.499,286.562 99.342,286.646 100.196 C 286.729 101.051,286.990 102.024,287.225 102.360 C 287.460 102.696,287.653 103.264,287.653 103.623 C 287.653 103.982,288.233 105.428,288.942 106.835 C 290.797 110.518,290.966 110.825,291.308 111.126 C 291.477 111.275,292.092 112.008,292.676 112.754 C 294.405 114.967,295.272 115.922,296.364 116.815 C 296.722 117.108,297.778 117.997,298.711 118.789 C 299.643 119.582,300.712 120.346,301.085 120.488 C 301.458 120.630,301.764 120.872,301.764 121.024 C 301.764 121.177,301.941 121.303,302.157 121.303 C 302.550 121.303,304.826 122.431,305.410 122.916 C 305.581 123.058,306.322 123.309,307.056 123.474 C 307.790 123.638,308.517 123.873,308.673 123.996 C 308.828 124.119,309.749 124.368,310.719 124.551 C 311.689 124.733,313.033 124.985,313.704 125.112 C 315.401 125.430,321.995 125.407,323.474 125.077 C 324.145 124.928,325.305 124.682,326.052 124.532 C 326.798 124.382,327.793 124.083,328.264 123.867 C 328.734 123.650,329.355 123.474,329.645 123.474 C 330.230 123.474,333.417 121.951,333.662 121.555 C 333.747 121.416,334.055 121.303,334.344 121.303 C 334.634 121.303,334.871 121.189,334.871 121.049 C 334.871 120.910,335.146 120.713,335.482 120.611 C 336.066 120.433,339.835 117.534,340.464 116.780 C 340.630 116.581,340.860 116.418,340.976 116.418 C 341.258 116.418,342.469 115.097,342.469 114.789 C 342.469 114.655,342.633 114.448,342.833 114.328 C 343.033 114.209,343.307 113.908,343.443 113.660 C 343.579 113.413,344.057 112.797,344.505 112.292 C 345.719 110.923,346.540 109.704,346.540 109.271 C 346.540 109.059,346.723 108.734,346.947 108.548 C 347.171 108.362,347.354 108.059,347.354 107.873 C 347.354 107.688,347.598 107.225,347.897 106.846 C 348.195 106.466,348.440 105.992,348.441 105.792 C 348.442 105.591,348.630 105.069,348.859 104.630 C 349.087 104.192,349.396 103.276,349.545 102.595 C 349.694 101.914,349.980 100.991,350.181 100.543 C 351.237 98.189,351.073 85.943,349.965 84.360 C 349.723 84.015,349.525 83.360,349.525 82.904 C 349.525 82.448,349.352 81.828,349.140 81.525 C 348.929 81.223,348.671 80.525,348.568 79.973 C 348.464 79.420,348.285 78.969,348.170 78.969 C 348.056 78.969,347.611 78.267,347.183 77.408 C 344.641 72.311,338.951 66.598,333.786 63.958 C 332.965 63.538,332.110 63.095,331.886 62.973 C 331.060 62.521,328.462 61.643,327.437 61.469 C 326.855 61.371,326.122 61.124,325.808 60.921 C 325.096 60.461,317.454 60.196,313.704 60.502 " stroke="none" fill="#fcbc64" fill-rule="evenodd"></path><path id="path3" d="M143.826 0.271 C 143.826 0.421,144.071 0.543,144.369 0.543 C 144.668 0.543,144.912 0.421,144.912 0.271 C 144.912 0.122,144.668 0.000,144.369 0.000 C 144.071 0.000,143.826 0.122,143.826 0.271 M250.083 0.789 C 250.000 0.924,250.195 0.966,250.517 0.882 C 250.953 0.768,251.046 0.819,250.882 1.085 C 250.737 1.321,250.768 1.375,250.976 1.247 C 251.148 1.141,251.289 0.939,251.289 0.798 C 251.289 0.471,250.285 0.463,250.083 0.789 M252.646 0.645 C 252.646 0.702,252.852 0.915,253.105 1.120 C 253.417 1.373,253.499 1.384,253.360 1.153 C 253.234 0.943,253.309 0.814,253.557 0.814 C 253.777 0.814,253.998 0.924,254.048 1.059 C 254.098 1.193,254.296 1.132,254.488 0.923 C 254.784 0.602,254.668 0.543,253.742 0.543 C 253.139 0.543,252.646 0.589,252.646 0.645 M366.441 1.990 C 366.441 2.189,366.603 2.352,366.802 2.352 C 367.001 2.352,367.164 2.189,367.164 1.990 C 367.164 1.791,367.001 1.628,366.802 1.628 C 366.603 1.628,366.441 1.791,366.441 1.990 M17.100 5.902 C 17.103 6.195,17.181 6.263,17.304 6.079 C 17.414 5.914,17.687 5.710,17.910 5.625 C 18.182 5.522,18.115 5.463,17.707 5.449 C 17.297 5.434,17.098 5.583,17.100 5.902 M389.149 9.060 C 389.147 9.192,389.450 9.583,389.824 9.929 C 390.322 10.390,390.502 10.451,390.502 10.155 C 390.502 9.933,390.288 9.673,390.027 9.577 C 389.766 9.481,389.463 9.271,389.353 9.111 C 389.243 8.951,389.152 8.928,389.149 9.060 M12.562 10.041 C 12.484 10.339,12.236 10.583,12.011 10.583 C 11.680 10.583,11.666 10.660,11.938 10.988 C 12.288 11.410,12.879 11.276,12.607 10.836 C 12.521 10.697,12.601 10.583,12.784 10.583 C 12.967 10.583,13.036 10.503,12.938 10.405 C 12.839 10.307,12.895 10.062,13.061 9.862 C 13.286 9.591,13.279 9.498,13.034 9.498 C 12.852 9.498,12.640 9.742,12.562 10.041 M6.686 20.217 C 6.580 20.494,6.701 20.624,7.064 20.624 C 7.358 20.624,7.598 20.441,7.598 20.217 C 7.598 19.993,7.428 19.810,7.220 19.810 C 7.012 19.810,6.772 19.993,6.686 20.217 M5.490 37.449 C 5.490 37.972,5.546 38.185,5.614 37.924 C 5.683 37.663,5.683 37.235,5.614 36.974 C 5.546 36.713,5.490 36.927,5.490 37.449 M4.786 50.678 C 4.472 51.782,4.639 53.495,5.051 53.409 C 5.274 53.362,5.450 53.233,5.442 53.121 C 5.434 53.009,5.427 52.307,5.427 51.560 C 5.427 50.237,5.057 49.727,4.786 50.678 M313.704 56.971 C 311.689 57.225,309.369 57.656,308.548 57.929 C 304.849 59.159,303.728 59.587,302.714 60.153 C 302.117 60.486,300.923 61.131,300.060 61.587 C 296.149 63.652,288.959 70.703,287.470 73.932 C 287.260 74.389,286.796 75.251,286.439 75.848 C 282.100 83.108,280.880 98.144,284.137 104.229 C 284.280 104.495,284.396 104.930,284.396 105.196 C 284.396 105.599,285.562 108.074,287.357 111.484 C 289.187 114.959,296.735 122.490,299.646 123.745 C 299.990 123.894,300.455 124.131,300.678 124.272 C 302.028 125.123,304.500 126.425,305.052 126.575 C 306.105 126.861,309.106 127.738,310.855 128.270 C 313.636 129.116,323.306 128.958,326.730 128.010 C 331.599 126.663,332.028 126.508,334.328 125.268 C 335.597 124.584,336.936 123.894,337.305 123.733 C 337.940 123.457,340.122 121.824,340.706 121.189 C 340.855 121.026,341.649 120.345,342.469 119.675 C 343.290 119.006,344.138 118.220,344.353 117.929 C 344.567 117.638,344.934 117.202,345.167 116.960 C 347.519 114.514,348.784 112.760,350.353 109.769 C 350.823 108.874,351.300 108.019,351.413 107.870 C 351.527 107.720,351.898 106.744,352.239 105.699 C 352.581 104.654,353.085 103.119,353.360 102.287 C 353.636 101.455,353.985 99.582,354.136 98.123 C 354.287 96.665,354.482 94.842,354.570 94.072 C 354.784 92.187,353.986 85.196,353.326 83.175 C 353.034 82.280,352.602 80.875,352.365 80.054 C 352.129 79.233,351.699 78.231,351.409 77.826 C 351.119 77.422,350.882 76.910,350.882 76.689 C 350.882 76.468,350.778 76.223,350.650 76.144 C 350.522 76.065,350.015 75.215,349.523 74.255 C 349.030 73.295,348.305 72.162,347.910 71.737 C 347.515 71.311,346.604 70.231,345.886 69.335 C 344.324 67.386,344.041 67.113,341.248 64.859 C 340.054 63.896,338.955 62.960,338.806 62.781 C 338.657 62.601,337.802 62.075,336.906 61.612 C 336.011 61.148,335.095 60.657,334.871 60.520 C 333.907 59.931,330.859 58.657,329.986 58.478 C 329.464 58.370,328.609 58.103,328.087 57.883 C 327.232 57.523,319.247 56.427,317.910 56.486 C 317.612 56.499,315.719 56.717,313.704 56.971 M321.845 59.701 C 322.218 59.830,323.501 60.016,324.695 60.113 C 325.889 60.210,327.110 60.443,327.408 60.631 C 327.707 60.819,328.425 61.048,329.003 61.140 C 330.067 61.309,334.659 63.428,334.826 63.827 C 334.876 63.946,335.052 64.043,335.218 64.043 C 335.630 64.043,337.546 65.370,338.453 66.282 C 338.861 66.693,339.321 67.028,339.475 67.028 C 339.841 67.028,344.098 71.285,344.098 71.651 C 344.098 71.805,344.434 72.269,344.844 72.683 C 345.728 73.572,346.712 74.920,347.102 75.776 C 347.256 76.114,347.674 76.879,348.031 77.476 C 349.019 79.127,349.816 80.913,349.970 81.818 C 350.047 82.266,350.282 83.060,350.493 83.582 C 350.854 84.472,351.044 85.572,351.711 90.638 C 351.974 92.630,351.938 93.170,351.150 99.050 C 351.001 100.170,350.705 101.513,350.493 102.035 C 350.281 102.558,350.033 103.351,349.942 103.799 C 349.852 104.247,349.607 104.980,349.397 105.427 C 349.188 105.875,348.942 106.425,348.851 106.649 C 348.760 106.872,348.391 107.544,348.031 108.141 C 347.671 108.738,347.206 109.593,346.998 110.041 C 346.108 111.954,342.814 115.729,339.836 118.250 C 337.305 120.392,336.468 120.998,335.193 121.612 C 334.493 121.949,333.760 122.383,333.563 122.578 C 333.365 122.772,332.984 122.931,332.714 122.931 C 332.444 122.931,332.082 123.101,331.910 123.309 C 331.737 123.518,331.177 123.767,330.667 123.862 C 330.156 123.958,329.397 124.214,328.980 124.432 C 328.564 124.649,327.942 124.828,327.598 124.829 C 327.255 124.830,326.643 125.002,326.239 125.211 C 324.364 126.180,313.164 126.201,310.719 125.240 C 310.197 125.035,309.317 124.793,308.763 124.703 C 308.210 124.613,307.416 124.361,306.999 124.143 C 306.582 123.926,305.982 123.748,305.664 123.747 C 305.347 123.746,304.935 123.562,304.749 123.338 C 304.563 123.114,304.298 122.931,304.160 122.931 C 303.817 122.931,299.588 120.477,299.035 119.957 C 297.826 118.821,295.660 117.059,295.102 116.758 C 294.757 116.572,294.405 116.206,294.321 115.944 C 294.236 115.682,293.770 115.046,293.284 114.530 C 291.868 113.024,290.147 110.722,289.540 109.523 C 289.231 108.912,288.634 107.796,288.214 107.043 C 287.793 106.291,287.361 105.275,287.254 104.786 C 287.147 104.298,286.888 103.571,286.679 103.170 C 286.470 102.770,286.298 102.137,286.296 101.764 C 286.294 101.391,286.086 100.719,285.833 100.271 C 285.140 99.041,285.137 86.583,285.830 85.292 C 286.086 84.814,286.300 84.142,286.305 83.799 C 286.310 83.456,286.550 82.687,286.839 82.090 C 287.127 81.493,287.367 80.744,287.372 80.427 C 287.377 80.109,287.564 79.697,287.788 79.512 C 288.012 79.326,288.195 78.972,288.195 78.725 C 288.195 78.478,288.397 77.988,288.643 77.636 C 288.889 77.285,289.390 76.433,289.755 75.744 C 291.206 73.008,296.116 67.629,298.862 65.767 C 299.488 65.342,300.092 64.851,300.205 64.676 C 300.318 64.501,300.775 64.277,301.220 64.179 C 301.665 64.082,302.100 63.887,302.186 63.747 C 302.273 63.607,302.732 63.307,303.207 63.080 C 303.682 62.853,304.620 62.375,305.292 62.018 C 305.963 61.661,307.062 61.281,307.734 61.174 C 308.406 61.067,309.199 60.823,309.498 60.633 C 309.796 60.442,311.140 60.150,312.483 59.983 C 313.826 59.816,315.597 59.592,316.418 59.487 C 318.172 59.261,320.883 59.368,321.845 59.701 M399.457 75.441 C 399.457 76.038,399.579 76.526,399.729 76.526 C 399.878 76.526,400.000 76.038,400.000 75.441 C 400.000 74.844,399.878 74.355,399.729 74.355 C 399.579 74.355,399.457 74.844,399.457 75.441 M81.140 122.102 C 80.170 122.701,79.071 123.343,78.697 123.530 C 78.324 123.717,77.958 123.941,77.883 124.029 C 77.809 124.116,77.076 124.585,76.255 125.070 C 75.434 125.555,73.602 126.675,72.185 127.559 C 70.767 128.443,69.240 129.354,68.792 129.585 C 68.345 129.815,67.612 130.241,67.164 130.530 C 66.716 130.820,65.923 131.308,65.400 131.615 C 64.878 131.922,64.130 132.383,63.739 132.640 C 63.348 132.897,62.207 133.596,61.203 134.193 C 60.199 134.790,59.054 135.486,58.658 135.740 C 57.698 136.356,56.998 136.783,55.734 137.525 C 55.155 137.865,54.353 138.353,53.952 138.610 C 53.551 138.867,52.102 139.749,50.732 140.570 C 49.363 141.391,47.839 142.307,47.345 142.605 C 46.852 142.904,45.633 143.636,44.636 144.233 C 43.640 144.830,42.547 145.502,42.207 145.726 C 41.868 145.950,40.769 146.621,39.765 147.218 C 38.761 147.815,37.658 148.487,37.313 148.711 C 36.382 149.317,33.156 151.233,32.333 151.670 C 31.938 151.880,31.554 152.132,31.479 152.231 C 31.404 152.330,30.631 152.830,29.760 153.342 C 27.901 154.436,27.863 154.459,25.295 156.041 C 24.207 156.711,22.924 157.476,22.445 157.741 C 21.966 158.006,21.251 158.433,20.856 158.691 C 20.462 158.948,19.058 159.806,17.736 160.598 C 12.132 163.954,10.425 164.987,10.041 165.255 C 8.600 166.258,5.585 167.978,5.266 167.978 C 5.056 167.978,4.885 168.116,4.885 168.284 C 4.885 168.486,4.538 168.535,3.867 168.428 C 2.612 168.227,1.628 168.461,1.628 168.960 C 1.628 169.166,1.384 169.335,1.085 169.335 C 0.609 169.335,0.543 169.516,0.543 170.828 C 0.543 171.649,0.421 172.320,0.271 172.320 C 0.092 172.320,0.000 185.075,0.000 210.041 C 0.000 235.007,0.092 247.761,0.271 247.761 C 0.424 247.761,0.543 248.527,0.543 249.516 C 0.543 250.992,0.629 251.316,1.085 251.560 C 1.406 251.732,1.628 252.129,1.628 252.528 C 1.628 252.901,1.811 253.276,2.035 253.362 C 2.259 253.448,2.442 253.791,2.442 254.125 C 2.442 254.459,2.687 254.954,2.985 255.224 C 3.284 255.494,3.528 255.940,3.528 256.216 C 3.528 256.536,3.724 256.716,4.071 256.716 C 4.432 256.716,4.613 256.897,4.613 257.259 C 4.613 257.561,4.794 257.802,5.020 257.802 C 5.244 257.802,5.427 257.997,5.427 258.234 C 5.427 258.472,5.672 258.731,5.970 258.809 C 6.269 258.887,6.513 259.120,6.513 259.326 C 6.513 259.533,6.757 259.701,7.056 259.701 C 7.417 259.701,7.598 259.882,7.598 260.244 C 7.598 260.606,7.779 260.787,8.141 260.787 C 8.503 260.787,8.684 260.968,8.684 261.330 C 8.684 261.628,8.853 261.872,9.059 261.872 C 9.266 261.872,9.499 262.117,9.577 262.415 C 9.655 262.714,9.913 262.958,10.151 262.958 C 10.389 262.958,10.583 263.141,10.583 263.365 C 10.583 263.647,10.866 263.772,11.502 263.772 C 12.192 263.772,12.455 263.907,12.562 264.315 C 12.657 264.681,12.932 264.858,13.405 264.858 C 13.813 264.858,14.249 265.085,14.446 265.400 C 14.632 265.699,14.986 265.943,15.233 265.943 C 15.480 265.943,15.752 266.126,15.838 266.350 C 15.954 266.653,16.438 266.757,17.735 266.757 C 19.247 266.757,19.494 266.828,19.617 267.300 C 19.750 267.807,19.987 267.843,23.279 267.843 C 25.955 267.843,26.874 267.933,27.113 268.220 C 27.549 268.746,28.980 268.923,29.153 268.473 C 29.229 268.275,29.142 268.096,28.960 268.074 C 27.138 267.854,33.656 267.661,40.706 267.726 C 45.556 267.771,52.883 267.823,56.988 267.842 C 63.753 267.873,64.387 267.914,63.772 268.283 C 63.130 268.669,63.127 268.684,63.704 268.563 C 64.040 268.493,64.315 268.547,64.315 268.682 C 64.315 268.817,64.566 268.928,64.874 268.928 C 65.181 268.928,65.357 268.806,65.265 268.657 C 65.033 268.282,65.492 268.315,65.877 268.699 C 66.115 268.937,66.293 268.930,66.608 268.667 C 66.838 268.477,67.270 268.385,67.570 268.464 C 68.305 268.656,68.261 268.427,67.503 268.121 C 66.920 267.885,66.925 267.876,67.620 267.916 C 68.020 267.939,68.341 268.023,68.334 268.104 C 68.266 268.868,69.041 269.267,69.568 268.740 C 69.824 268.484,72.707 268.469,72.549 268.725 C 72.397 268.971,74.195 268.953,76.323 268.687 C 77.181 268.580,77.883 268.571,77.883 268.667 C 77.883 268.764,81.504 268.868,85.930 268.899 C 92.450 268.945,94.084 269.030,94.539 269.349 C 95.199 269.811,97.906 269.874,98.507 269.441 C 98.848 269.196,98.834 269.174,98.426 269.306 C 98.157 269.393,98.002 269.359,98.082 269.229 C 98.419 268.684,99.380 268.675,99.238 269.218 C 99.152 269.548,99.239 269.742,99.474 269.742 C 99.712 269.742,99.787 269.570,99.680 269.267 C 99.544 268.880,99.580 268.855,99.879 269.132 C 100.315 269.537,100.780 269.584,100.543 269.199 C 100.450 269.050,100.657 268.919,101.002 268.908 C 101.346 268.896,102.086 268.859,102.646 268.825 C 103.206 268.791,103.664 268.865,103.664 268.991 C 103.664 269.116,103.886 269.099,104.158 268.954 C 104.475 268.784,116.173 268.724,136.655 268.786 C 177.059 268.908,173.957 268.861,173.771 269.347 C 173.687 269.564,173.754 269.742,173.919 269.742 C 174.085 269.742,174.189 269.590,174.152 269.403 C 174.103 269.160,174.647 269.048,176.060 269.009 C 177.146 268.978,177.973 269.054,177.897 269.177 C 177.821 269.301,178.214 269.477,178.771 269.569 C 180.342 269.829,182.090 269.772,182.090 269.461 C 182.090 269.283,182.262 269.268,182.564 269.422 C 183.077 269.683,184.070 269.697,204.380 269.724 C 216.700 269.741,217.847 269.780,217.812 270.188 C 217.792 270.433,217.915 270.683,218.086 270.744 C 218.257 270.805,218.379 270.635,218.357 270.366 C 218.298 269.636,284.265 269.459,284.797 270.187 C 285.059 270.545,285.173 270.565,285.347 270.284 C 285.501 270.035,285.460 269.995,285.210 270.149 C 284.975 270.295,284.921 270.263,285.049 270.055 C 285.309 269.634,286.295 269.655,286.300 270.081 C 286.303 270.326,286.360 270.334,286.503 270.111 C 286.645 269.891,286.818 269.926,287.101 270.231 C 287.451 270.608,287.451 270.641,287.101 270.510 C 286.882 270.427,286.459 270.457,286.160 270.575 C 285.751 270.737,285.889 270.794,286.716 270.809 C 287.321 270.819,287.980 270.675,288.181 270.488 C 288.477 270.214,288.505 270.223,288.326 270.535 C 288.161 270.825,288.223 270.875,288.580 270.738 C 288.841 270.638,289.105 270.556,289.167 270.556 C 289.230 270.556,289.283 270.343,289.285 270.081 C 289.288 269.710,289.340 269.687,289.524 269.976 C 289.721 270.289,289.779 270.289,289.893 269.976 C 289.999 269.685,290.101 269.676,290.378 269.937 C 290.663 270.205,290.615 270.311,290.131 270.490 C 289.719 270.642,290.107 270.714,291.374 270.719 C 292.549 270.723,292.970 270.656,292.537 270.532 C 291.913 270.354,291.906 270.337,292.453 270.312 C 292.780 270.297,293.116 270.394,293.198 270.528 C 293.285 270.669,303.167 270.787,316.485 270.808 C 331.132 270.831,339.653 270.941,339.711 271.108 C 339.830 271.455,340.570 271.448,340.570 271.099 C 340.570 270.922,345.409 270.828,354.545 270.828 C 365.543 270.828,368.522 270.900,368.525 271.167 C 368.528 271.415,368.592 271.407,368.764 271.136 C 368.962 270.824,369.021 270.824,369.145 271.136 C 369.250 271.399,369.299 271.408,369.314 271.167 C 369.330 270.915,370.211 270.828,372.753 270.828 C 375.942 270.828,376.180 270.791,376.312 270.285 C 376.437 269.809,376.682 269.742,378.322 269.742 C 379.801 269.742,380.190 269.658,380.190 269.335 C 380.190 269.086,380.444 268.928,380.846 268.928 C 381.783 268.928,382.361 268.658,382.361 268.221 C 382.361 267.970,382.680 267.843,383.311 267.843 C 383.999 267.843,384.261 267.723,384.261 267.410 C 384.261 267.172,384.505 266.914,384.803 266.836 C 385.102 266.758,385.346 266.525,385.346 266.318 C 385.346 266.112,385.590 265.943,385.889 265.943 C 386.251 265.943,386.431 265.762,386.431 265.400 C 386.431 265.038,386.612 264.858,386.974 264.858 C 387.336 264.858,387.517 264.677,387.517 264.315 C 387.517 263.875,387.698 263.772,388.467 263.772 C 389.236 263.772,389.417 263.669,389.417 263.229 C 389.417 262.931,389.594 262.687,389.811 262.687 C 390.048 262.687,390.278 262.305,390.384 261.737 C 390.513 261.049,390.704 260.787,391.075 260.787 C 391.407 260.787,391.588 260.595,391.588 260.244 C 391.588 259.943,391.768 259.701,391.995 259.701 C 392.218 259.701,392.402 259.533,392.402 259.326 C 392.402 259.120,392.646 258.887,392.944 258.809 C 393.356 258.701,393.487 258.439,393.487 257.723 C 393.487 257.008,393.618 256.745,394.030 256.638 C 394.399 256.541,394.573 256.268,394.573 255.784 C 394.573 255.392,394.756 255.001,394.980 254.915 C 395.256 254.809,395.387 254.376,395.387 253.569 C 395.387 252.673,395.521 252.295,395.929 252.040 C 396.401 251.746,396.472 251.407,396.472 249.476 C 396.472 248.252,396.596 247.174,396.748 247.080 C 396.900 246.986,396.941 246.775,396.839 246.611 C 396.720 246.419,396.816 246.374,397.106 246.485 C 397.486 246.631,397.558 246.466,397.558 245.446 C 397.558 244.488,397.461 244.233,397.099 244.233 C 396.696 244.233,396.705 244.181,397.167 243.806 C 397.456 243.571,397.541 243.456,397.354 243.551 C 397.168 243.645,397.015 243.593,397.015 243.435 C 397.015 243.277,397.137 243.148,397.286 243.148 C 397.436 243.148,397.549 242.812,397.539 242.402 C 397.522 241.740,397.493 241.717,397.286 242.198 C 397.061 242.721,397.052 242.720,397.034 242.146 C 397.024 241.819,396.880 241.468,396.715 241.366 C 396.504 241.236,396.523 241.113,396.775 240.957 C 396.974 240.835,397.207 240.849,397.294 240.989 C 397.380 241.129,397.462 240.756,397.475 240.161 C 397.488 239.565,397.375 239.077,397.224 239.077 C 397.058 239.077,397.075 238.925,397.266 238.694 C 397.487 238.428,397.496 238.257,397.295 238.133 C 397.136 238.035,397.095 237.811,397.203 237.636 C 397.311 237.461,397.440 233.779,397.489 229.455 C 397.563 222.976,397.650 221.515,397.982 221.148 C 398.486 220.591,398.443 218.036,397.922 217.603 C 397.434 217.199,397.459 216.378,397.965 216.184 C 398.189 216.098,398.362 215.871,398.350 215.680 C 398.334 215.408,398.299 215.406,398.192 215.672 C 398.117 215.858,397.878 216.011,397.661 216.011 C 397.356 216.011,397.330 215.893,397.548 215.486 C 397.719 215.166,397.737 214.715,397.595 214.333 C 397.466 213.987,397.342 206.811,397.319 198.385 C 397.289 187.065,397.196 183.016,396.963 182.871 C 396.789 182.764,395.966 182.479,395.135 182.237 C 394.303 181.996,392.829 181.557,391.859 181.262 C 390.889 180.966,389.827 180.727,389.500 180.729 C 389.173 180.731,388.836 180.620,388.751 180.482 C 388.666 180.344,388.201 180.155,387.717 180.060 C 387.234 179.966,385.984 179.643,384.939 179.342 C 383.894 179.041,382.429 178.627,381.682 178.423 C 380.936 178.218,379.442 177.796,378.361 177.484 C 376.293 176.887,374.068 176.252,370.692 175.298 C 369.573 174.982,368.290 174.598,367.843 174.445 C 367.395 174.291,366.423 174.046,365.682 173.899 C 364.942 173.752,364.001 173.459,363.592 173.247 C 363.184 173.036,362.542 172.863,362.167 172.863 C 361.791 172.863,361.083 172.693,360.593 172.485 C 360.103 172.277,358.480 171.777,356.988 171.375 C 355.495 170.973,353.725 170.474,353.053 170.268 C 351.882 169.907,349.287 169.171,346.404 168.382 C 344.663 167.905,341.462 166.997,339.213 166.341 C 337.282 165.777,334.761 165.061,331.615 164.182 C 330.495 163.869,329.213 163.483,328.765 163.324 C 328.318 163.165,327.458 162.950,326.856 162.845 C 326.253 162.740,325.593 162.551,325.388 162.424 C 325.183 162.298,324.333 162.040,323.498 161.851 C 322.664 161.662,320.699 161.133,319.132 160.676 C 317.564 160.219,315.366 159.582,314.247 159.260 C 313.128 158.939,311.418 158.443,310.448 158.158 C 309.478 157.873,308.073 157.468,307.327 157.258 C 306.581 157.047,305.085 156.626,304.003 156.321 C 302.921 156.016,301.150 155.519,300.068 155.216 C 298.986 154.912,297.246 154.417,296.201 154.114 C 295.156 153.811,293.691 153.392,292.944 153.183 C 292.198 152.973,290.672 152.544,289.552 152.229 C 288.433 151.914,287.151 151.532,286.703 151.379 C 286.255 151.226,285.217 150.943,284.396 150.750 C 283.575 150.556,282.537 150.278,282.090 150.131 C 281.642 149.984,280.347 149.588,279.213 149.252 L 277.151 148.641 275.278 149.382 C 274.248 149.790,273.290 150.233,273.148 150.367 C 273.006 150.501,272.709 150.611,272.487 150.611 C 272.266 150.611,271.588 150.840,270.981 151.121 C 270.374 151.402,269.145 151.911,268.250 152.251 C 266.721 152.832,265.791 153.215,263.501 154.206 C 262.978 154.432,262.095 154.762,261.537 154.940 C 260.979 155.118,260.453 155.377,260.368 155.515 C 260.282 155.653,260.006 155.771,259.753 155.776 C 259.501 155.781,258.806 156.021,258.209 156.309 C 257.612 156.598,256.981 156.838,256.806 156.843 C 256.632 156.848,256.143 157.020,255.721 157.226 C 254.208 157.962,253.036 158.469,251.967 158.847 C 250.192 159.477,244.155 161.989,243.377 162.422 C 242.981 162.642,242.428 162.822,242.149 162.822 C 241.869 162.822,241.400 162.979,241.105 163.171 C 240.811 163.364,239.837 163.800,238.942 164.142 C 236.768 164.971,234.841 165.762,233.485 166.383 C 232.871 166.663,232.233 166.893,232.067 166.893 C 231.901 166.893,231.182 167.156,230.469 167.477 C 228.243 168.480,227.652 168.723,223.609 170.301 C 221.445 171.145,219.213 172.067,218.648 172.349 C 218.084 172.632,217.473 172.863,217.292 172.862 C 217.110 172.862,216.411 173.124,215.739 173.444 C 212.239 175.115,211.152 175.384,209.517 174.987 C 208.835 174.822,208.084 174.520,207.848 174.317 C 207.613 174.114,207.246 173.948,207.034 173.947 C 206.822 173.947,206.249 173.703,205.760 173.405 C 205.271 173.107,204.680 172.863,204.445 172.863 C 204.211 172.863,203.694 172.689,203.298 172.477 C 202.902 172.265,201.998 171.837,201.289 171.527 C 199.204 170.615,197.636 169.914,196.387 169.335 C 195.742 169.037,195.059 168.792,194.868 168.792 C 194.677 168.792,194.197 168.615,193.800 168.398 C 193.404 168.180,192.347 167.681,191.452 167.289 C 190.556 166.896,189.457 166.410,189.009 166.210 C 188.562 166.009,186.974 165.339,185.482 164.720 C 183.989 164.101,182.371 163.421,181.886 163.209 C 181.401 162.996,180.607 162.651,180.122 162.441 C 178.488 161.736,176.669 160.926,175.491 160.380 C 174.847 160.081,174.243 159.837,174.150 159.837 C 174.057 159.837,172.943 159.349,171.674 158.752 C 170.406 158.155,169.277 157.666,169.166 157.666 C 169.055 157.666,168.406 157.410,167.725 157.097 C 165.705 156.170,164.075 155.461,161.194 154.256 C 159.496 153.546,158.055 152.927,156.038 152.040 C 155.516 151.811,154.722 151.466,154.274 151.275 C 152.650 150.581,145.570 147.580,144.776 147.249 C 144.328 147.062,143.351 146.632,142.605 146.293 C 139.964 145.094,139.590 144.931,136.635 143.687 C 134.993 142.997,133.253 142.257,132.768 142.043 C 132.283 141.830,131.489 141.484,131.004 141.274 C 130.519 141.065,129.573 140.654,128.901 140.362 C 127.499 139.752,122.171 137.461,120.760 136.862 C 120.237 136.641,119.444 136.295,118.996 136.094 C 118.548 135.892,115.984 134.794,113.297 133.652 C 110.611 132.510,108.046 131.413,107.598 131.214 C 106.535 130.742,104.955 130.058,101.628 128.630 C 98.799 127.415,97.484 126.844,95.319 125.891 C 94.610 125.579,93.786 125.224,93.487 125.102 C 93.189 124.979,92.395 124.641,91.723 124.351 C 91.052 124.060,89.708 123.487,88.738 123.078 C 87.768 122.668,86.465 122.095,85.843 121.804 C 83.798 120.848,83.101 120.892,81.140 122.102 M3.809 123.727 C 3.446 124.406,3.449 125.102,3.815 125.102 C 3.973 125.102,4.032 124.988,3.946 124.849 C 3.861 124.710,3.933 124.508,4.108 124.400 C 4.299 124.282,4.353 124.321,4.244 124.498 C 4.144 124.660,4.186 124.870,4.338 124.963 C 4.505 125.067,4.613 124.753,4.613 124.168 C 4.613 123.108,4.247 122.908,3.809 123.727 M85.893 124.951 C 86.193 125.144,86.826 125.387,87.299 125.491 C 87.771 125.594,88.303 125.855,88.481 126.069 C 88.659 126.283,88.990 126.459,89.217 126.459 C 89.443 126.459,90.191 126.716,90.879 127.031 C 91.567 127.345,92.497 127.762,92.944 127.957 C 95.999 129.286,97.102 129.787,97.735 130.134 C 98.131 130.351,98.703 130.529,99.005 130.529 C 99.307 130.529,99.721 130.696,99.925 130.900 C 100.130 131.105,100.596 131.360,100.962 131.468 C 101.329 131.576,102.178 131.910,102.849 132.209 C 104.038 132.738,104.820 133.083,107.056 134.064 C 107.653 134.326,108.704 134.798,109.392 135.113 C 110.080 135.428,110.828 135.685,111.055 135.685 C 111.281 135.685,111.619 135.868,111.805 136.092 C 111.990 136.316,112.328 136.499,112.554 136.499 C 112.781 136.499,113.468 136.734,114.082 137.020 C 114.695 137.307,115.807 137.803,116.554 138.123 C 117.300 138.442,118.277 138.868,118.725 139.068 C 119.172 139.268,120.149 139.694,120.896 140.015 C 121.642 140.335,122.741 140.836,123.338 141.127 C 123.935 141.418,124.622 141.657,124.865 141.656 C 125.108 141.656,125.459 141.839,125.645 142.062 C 125.830 142.286,126.168 142.469,126.394 142.469 C 126.621 142.469,127.369 142.727,128.057 143.042 C 128.745 143.356,129.796 143.832,130.393 144.098 C 130.991 144.364,132.042 144.839,132.730 145.154 C 133.418 145.468,134.166 145.726,134.393 145.726 C 134.619 145.726,134.954 145.906,135.137 146.126 C 135.319 146.346,135.885 146.604,136.394 146.699 C 136.903 146.795,137.384 146.978,137.464 147.106 C 137.543 147.234,138.091 147.470,138.682 147.629 C 139.272 147.788,139.756 148.035,139.756 148.179 C 139.756 148.322,139.958 148.440,140.204 148.440 C 140.451 148.440,141.337 148.753,142.172 149.136 C 143.007 149.518,144.057 149.994,144.505 150.192 C 144.953 150.390,145.882 150.809,146.570 151.124 C 147.258 151.439,148.006 151.696,148.233 151.696 C 148.459 151.696,148.786 151.866,148.959 152.075 C 149.132 152.283,149.684 152.530,150.186 152.625 C 150.688 152.719,151.248 152.976,151.431 153.196 C 151.613 153.416,151.998 153.596,152.286 153.596 C 152.574 153.596,153.261 153.825,153.813 154.106 C 154.365 154.386,155.244 154.803,155.767 155.032 C 156.289 155.261,157.411 155.764,158.260 156.150 C 159.109 156.536,159.979 156.852,160.194 156.852 C 160.409 156.852,160.737 157.035,160.923 157.259 C 161.108 157.483,161.536 157.666,161.872 157.666 C 162.209 157.666,162.636 157.849,162.822 158.073 C 163.008 158.297,163.336 158.480,163.551 158.480 C 163.766 158.480,164.636 158.796,165.485 159.182 C 166.334 159.568,167.425 160.057,167.910 160.268 C 170.163 161.247,170.658 161.464,172.149 162.121 C 173.026 162.506,173.896 162.822,174.084 162.822 C 174.271 162.822,174.577 163.005,174.763 163.229 C 174.948 163.453,175.341 163.636,175.636 163.636 C 175.930 163.636,176.495 163.810,176.892 164.022 C 177.577 164.390,178.574 164.839,181.479 166.092 C 182.188 166.397,183.195 166.870,183.718 167.143 C 184.240 167.416,185.064 167.725,185.550 167.830 C 186.035 167.935,186.431 168.119,186.431 168.239 C 186.431 168.359,186.981 168.595,187.653 168.764 C 188.324 168.933,188.874 169.192,188.874 169.339 C 188.874 169.486,189.074 169.607,189.319 169.607 C 189.564 169.607,190.327 169.864,191.015 170.179 C 191.703 170.493,192.754 170.969,193.351 171.235 C 193.948 171.501,195.000 171.976,195.688 172.291 C 196.376 172.605,197.124 172.863,197.351 172.863 C 197.577 172.863,197.915 173.046,198.100 173.270 C 198.286 173.494,198.624 173.677,198.850 173.677 C 199.077 173.677,199.825 173.934,200.513 174.249 C 201.201 174.564,202.130 174.979,202.578 175.173 C 203.026 175.366,203.942 175.771,204.613 176.073 C 205.285 176.374,206.628 176.939,207.598 177.327 C 208.569 177.715,209.574 178.152,209.833 178.297 C 210.481 178.661,210.951 178.630,211.850 178.163 C 212.273 177.944,213.474 177.443,214.518 177.050 C 215.563 176.657,216.534 176.226,216.676 176.092 C 216.818 175.958,217.125 175.848,217.358 175.848 C 217.592 175.848,218.238 175.604,218.795 175.305 C 219.352 175.007,219.966 174.763,220.159 174.763 C 220.352 174.763,220.988 174.518,221.574 174.220 C 222.159 173.921,222.842 173.677,223.091 173.677 C 223.339 173.677,223.695 173.494,223.881 173.270 C 224.066 173.046,224.417 172.862,224.660 172.861 C 224.903 172.860,225.426 172.691,225.822 172.484 C 226.218 172.277,227.012 171.955,227.586 171.769 C 228.160 171.582,228.870 171.263,229.165 171.060 C 229.459 170.858,229.918 170.692,230.183 170.692 C 230.449 170.692,231.123 170.448,231.679 170.149 C 232.236 169.851,232.893 169.607,233.138 169.607 C 233.383 169.607,233.735 169.423,233.921 169.199 C 234.107 168.976,234.489 168.792,234.770 168.792 C 235.050 168.792,235.736 168.548,236.293 168.250 C 236.850 167.951,237.460 167.707,237.650 167.707 C 237.839 167.707,238.450 167.463,239.006 167.164 C 239.563 166.866,240.164 166.621,240.340 166.621 C 240.517 166.621,241.007 166.447,241.430 166.234 C 241.852 166.021,242.992 165.521,243.962 165.125 C 244.932 164.728,246.111 164.231,246.581 164.020 C 247.051 163.809,247.608 163.636,247.818 163.636 C 248.028 163.636,248.437 163.457,248.727 163.238 C 249.017 163.019,249.424 162.836,249.631 162.831 C 249.839 162.826,250.510 162.593,251.124 162.312 C 251.737 162.031,252.910 161.528,253.731 161.194 C 254.552 160.860,255.726 160.357,256.339 160.076 C 256.952 159.795,257.647 159.566,257.883 159.566 C 258.119 159.566,258.383 159.453,258.468 159.314 C 258.554 159.176,259.080 158.922,259.637 158.751 C 260.195 158.580,261.048 158.265,261.533 158.053 C 263.308 157.275,264.221 156.905,266.214 156.154 C 267.334 155.733,268.491 155.229,268.785 155.035 C 269.079 154.840,269.509 154.681,269.739 154.681 C 269.969 154.681,270.613 154.437,271.170 154.138 C 271.727 153.840,272.412 153.596,272.693 153.596 C 272.974 153.596,273.344 153.426,273.516 153.219 C 273.688 153.011,274.368 152.706,275.026 152.540 C 275.684 152.375,276.298 152.117,276.391 151.968 C 276.617 151.602,277.677 151.625,278.612 152.015 C 279.032 152.190,279.986 152.481,280.733 152.660 C 281.479 152.839,282.456 153.112,282.904 153.266 C 283.956 153.629,287.152 154.552,292.944 156.164 C 293.691 156.372,295.104 156.795,296.084 157.104 C 297.065 157.413,298.103 157.667,298.391 157.668 C 298.679 157.669,299.240 157.840,299.639 158.047 C 300.037 158.255,300.892 158.513,301.538 158.620 C 302.185 158.727,302.958 158.944,303.256 159.102 C 303.555 159.259,304.471 159.539,305.292 159.722 C 306.113 159.906,307.151 160.179,307.598 160.330 C 308.458 160.618,310.868 161.321,314.247 162.271 C 315.366 162.585,316.649 162.973,317.096 163.132 C 317.544 163.291,318.460 163.521,319.132 163.643 C 319.803 163.765,320.807 164.058,321.362 164.294 C 321.917 164.529,322.649 164.723,322.990 164.724 C 323.331 164.724,323.937 164.896,324.337 165.105 C 324.738 165.314,325.470 165.565,325.965 165.664 C 326.461 165.762,327.415 166.012,328.087 166.220 C 328.758 166.427,330.224 166.860,331.343 167.181 C 332.463 167.502,334.120 167.996,335.026 168.279 C 335.932 168.561,336.947 168.792,337.283 168.792 C 337.618 168.792,338.159 168.942,338.485 169.125 C 338.811 169.308,339.688 169.604,340.434 169.784 C 342.775 170.347,345.026 170.980,345.590 171.235 C 346.187 171.504,348.552 172.161,350.901 172.710 C 351.733 172.904,352.649 173.187,352.937 173.339 C 353.224 173.490,354.009 173.705,354.681 173.815 C 355.353 173.926,356.143 174.184,356.438 174.390 C 356.732 174.595,357.343 174.763,357.794 174.764 C 358.246 174.765,358.942 174.936,359.340 175.144 C 359.738 175.351,360.593 175.609,361.240 175.717 C 361.886 175.824,362.745 176.081,363.148 176.287 C 363.551 176.493,364.162 176.668,364.505 176.674 C 364.848 176.681,365.617 176.873,366.214 177.103 C 366.811 177.332,367.875 177.636,368.578 177.779 C 369.280 177.922,370.196 178.217,370.613 178.435 C 371.030 178.652,371.712 178.831,372.130 178.831 C 372.548 178.832,373.220 179.002,373.623 179.208 C 374.026 179.414,374.905 179.674,375.577 179.785 C 376.248 179.896,377.039 180.154,377.333 180.360 C 377.628 180.565,378.177 180.733,378.554 180.733 C 378.932 180.733,379.973 180.971,380.868 181.263 C 381.764 181.555,383.412 182.055,384.532 182.374 C 385.651 182.694,386.934 183.078,387.381 183.227 C 387.829 183.376,388.745 183.617,389.417 183.764 C 390.088 183.910,391.023 184.204,391.493 184.416 C 391.963 184.629,392.661 184.803,393.044 184.803 C 394.294 184.803,394.283 184.471,394.008 212.368 C 393.735 240.071,393.431 248.059,392.577 249.991 C 392.331 250.546,392.130 251.195,392.130 251.433 C 392.130 253.567,387.647 259.855,384.396 262.281 C 383.799 262.726,383.250 263.170,383.175 263.268 C 383.100 263.365,382.442 263.763,381.711 264.151 C 380.980 264.539,380.247 264.969,380.081 265.107 C 379.915 265.244,379.422 265.446,378.985 265.556 C 378.548 265.666,377.877 265.919,377.494 266.119 C 377.111 266.319,376.538 266.483,376.220 266.484 C 375.903 266.485,375.170 266.699,374.592 266.959 C 373.172 267.599,359.658 267.699,325.645 267.321 C 301.562 267.054,283.594 266.882,207.056 266.189 C 188.921 266.025,164.986 265.791,153.867 265.670 C 142.748 265.548,122.354 265.421,108.548 265.387 C 94.742 265.353,78.318 265.220,72.049 265.091 C 65.780 264.963,51.981 264.760,41.384 264.642 C 24.004 264.448,22.032 264.381,21.248 263.964 C 20.771 263.709,20.160 263.500,19.891 263.499 C 19.623 263.498,19.053 263.315,18.626 263.092 C 18.198 262.869,17.710 262.685,17.540 262.682 C 16.215 262.662,10.453 258.267,8.298 255.631 C 6.452 253.373,4.227 249.282,3.903 247.548 C 3.799 246.993,3.537 246.115,3.320 245.596 C 2.853 244.478,2.822 220.984,3.260 201.493 C 3.401 195.224,3.588 186.309,3.675 181.682 C 3.867 171.504,3.723 172.296,5.579 171.187 C 6.408 170.691,7.538 170.013,8.089 169.681 C 8.640 169.349,9.335 168.943,9.634 168.780 C 11.068 167.996,11.953 167.461,13.704 166.320 C 14.749 165.640,16.275 164.727,17.096 164.292 C 17.917 163.857,18.687 163.348,18.806 163.161 C 18.925 162.975,19.191 162.822,19.397 162.822 C 19.603 162.822,19.954 162.640,20.177 162.416 C 20.401 162.193,20.867 161.886,21.214 161.734 C 21.561 161.582,22.700 160.913,23.745 160.247 C 24.790 159.582,25.950 158.884,26.323 158.697 C 26.696 158.509,27.062 158.284,27.137 158.197 C 27.269 158.042,29.562 156.662,31.297 155.693 C 31.770 155.429,32.890 154.726,33.786 154.131 C 34.681 153.536,35.780 152.863,36.228 152.635 C 36.676 152.408,37.366 152.012,37.762 151.755 C 38.158 151.499,39.298 150.801,40.294 150.204 C 41.291 149.607,42.554 148.846,43.102 148.513 C 43.650 148.180,44.281 147.821,44.505 147.716 C 44.729 147.610,45.461 147.142,46.133 146.676 C 46.805 146.209,47.537 145.747,47.761 145.647 C 47.985 145.547,48.657 145.161,49.254 144.788 C 49.851 144.416,50.767 143.860,51.289 143.554 C 51.811 143.247,52.605 142.758,53.053 142.466 C 53.501 142.174,54.111 141.802,54.410 141.641 C 55.849 140.860,56.702 140.345,58.101 139.413 C 58.938 138.855,59.752 138.399,59.910 138.399 C 60.069 138.399,60.240 138.300,60.289 138.179 C 60.339 138.059,61.096 137.540,61.970 137.026 C 62.845 136.512,64.005 135.823,64.548 135.495 C 65.091 135.166,65.841 134.741,66.214 134.551 C 66.588 134.360,66.954 134.132,67.028 134.045 C 67.152 133.900,69.251 132.628,71.040 131.615 C 71.435 131.391,71.924 131.055,72.126 130.868 C 72.329 130.682,72.609 130.529,72.749 130.529 C 72.890 130.529,73.612 130.102,74.355 129.579 C 75.099 129.057,75.767 128.630,75.840 128.630 C 75.913 128.630,76.648 128.198,77.472 127.671 C 78.296 127.144,79.184 126.632,79.444 126.535 C 79.705 126.437,80.479 125.965,81.165 125.486 C 82.970 124.225,84.495 124.052,85.893 124.951 M3.575 126.323 C 3.528 127.023,3.620 127.273,3.926 127.273 C 4.155 127.273,4.342 127.143,4.342 126.985 C 4.342 126.827,4.227 126.769,4.087 126.856 C 3.947 126.942,3.851 126.766,3.873 126.464 C 3.896 126.163,4.079 125.916,4.280 125.916 C 4.481 125.916,4.570 125.794,4.478 125.645 C 4.114 125.055,3.636 125.414,3.575 126.323 M399.087 145.317 C 399.176 145.548,399.055 145.793,398.807 145.888 C 398.209 146.118,398.172 148.982,398.767 148.982 C 399.005 148.982,399.212 148.632,399.290 148.100 C 399.492 146.714,399.422 144.912,399.165 144.912 C 399.037 144.912,399.001 145.094,399.087 145.317 M49.729 268.854 C 50.288 268.913,51.204 268.913,51.764 268.854 C 52.324 268.796,51.866 268.748,50.746 268.748 C 49.627 268.748,49.169 268.796,49.729 268.854 M218.661 270.304 C 219.127 270.806,221.072 270.923,221.250 270.460 C 221.325 270.264,221.220 270.104,221.017 270.104 C 220.814 270.104,220.707 270.199,220.779 270.315 C 220.951 270.594,219.246 270.474,218.725 270.171 C 218.391 269.977,218.379 270.001,218.661 270.304 " stroke="none" fill="#f7faf9" fill-rule="evenodd"></path><path id="path4" d="M316.418 59.487 C 315.597 59.592,313.826 59.816,312.483 59.983 C 311.140 60.150,309.796 60.442,309.498 60.633 C 309.199 60.823,308.406 61.067,307.734 61.174 C 307.062 61.281,305.963 61.661,305.292 62.018 C 304.620 62.375,303.682 62.853,303.207 63.080 C 302.732 63.307,302.273 63.607,302.186 63.747 C 302.100 63.887,301.665 64.082,301.220 64.179 C 300.775 64.277,300.318 64.501,300.205 64.676 C 300.092 64.851,299.488 65.342,298.862 65.767 C 296.116 67.629,291.206 73.008,289.755 75.744 C 289.390 76.433,288.889 77.285,288.643 77.636 C 288.397 77.988,288.195 78.478,288.195 78.725 C 288.195 78.972,288.012 79.326,287.788 79.512 C 287.564 79.697,287.377 80.109,287.372 80.427 C 287.367 80.744,287.127 81.493,286.839 82.090 C 286.550 82.687,286.310 83.456,286.305 83.799 C 286.300 84.142,286.086 84.814,285.830 85.292 C 285.137 86.583,285.140 99.041,285.833 100.271 C 286.086 100.719,286.294 101.391,286.296 101.764 C 286.298 102.137,286.470 102.770,286.679 103.170 C 286.888 103.571,287.147 104.298,287.254 104.786 C 287.361 105.275,287.793 106.291,288.214 107.043 C 288.634 107.796,289.231 108.912,289.540 109.523 C 290.147 110.722,291.868 113.024,293.284 114.530 C 293.770 115.046,294.236 115.682,294.321 115.944 C 294.405 116.206,294.757 116.572,295.102 116.758 C 295.660 117.059,297.826 118.821,299.035 119.957 C 299.588 120.477,303.817 122.931,304.160 122.931 C 304.298 122.931,304.563 123.114,304.749 123.338 C 304.935 123.562,305.347 123.746,305.664 123.747 C 305.982 123.748,306.582 123.926,306.999 124.143 C 307.416 124.361,308.210 124.613,308.763 124.703 C 309.317 124.793,310.197 125.035,310.719 125.240 C 313.164 126.201,324.364 126.180,326.239 125.211 C 326.643 125.002,327.255 124.830,327.598 124.829 C 327.942 124.828,328.564 124.649,328.980 124.432 C 329.397 124.214,330.156 123.958,330.667 123.862 C 331.177 123.767,331.737 123.518,331.910 123.309 C 332.082 123.101,332.444 122.931,332.714 122.931 C 332.984 122.931,333.365 122.772,333.563 122.578 C 333.760 122.383,334.493 121.949,335.193 121.612 C 338.682 119.932,345.511 113.238,346.998 110.041 C 347.206 109.593,347.671 108.738,348.031 108.141 C 348.391 107.544,348.760 106.872,348.851 106.649 C 348.942 106.425,349.188 105.875,349.397 105.427 C 349.607 104.980,349.852 104.247,349.942 103.799 C 350.033 103.351,350.281 102.558,350.493 102.035 C 350.705 101.513,351.001 100.170,351.150 99.050 C 351.938 93.170,351.974 92.630,351.711 90.638 C 351.044 85.572,350.854 84.472,350.493 83.582 C 350.282 83.060,350.047 82.266,349.970 81.818 C 349.816 80.913,349.019 79.127,348.031 77.476 C 347.674 76.879,347.256 76.114,347.102 75.776 C 346.712 74.920,345.728 73.572,344.844 72.683 C 344.434 72.269,344.098 71.805,344.098 71.651 C 344.098 71.285,339.841 67.028,339.475 67.028 C 339.321 67.028,338.861 66.693,338.453 66.282 C 337.546 65.370,335.630 64.043,335.218 64.043 C 335.052 64.043,334.876 63.946,334.826 63.827 C 334.659 63.428,330.067 61.309,329.003 61.140 C 328.425 61.048,327.707 60.819,327.408 60.631 C 327.110 60.443,325.889 60.210,324.695 60.113 C 323.501 60.016,322.218 59.830,321.845 59.701 C 320.883 59.368,318.172 59.261,316.418 59.487 M325.808 60.921 C 326.122 61.124,326.855 61.371,327.437 61.469 C 328.462 61.643,331.060 62.521,331.886 62.973 C 332.110 63.095,332.965 63.538,333.786 63.958 C 338.951 66.598,344.641 72.311,347.183 77.408 C 347.611 78.267,348.056 78.969,348.170 78.969 C 348.285 78.969,348.464 79.420,348.568 79.973 C 348.671 80.525,348.929 81.223,349.140 81.525 C 349.352 81.828,349.525 82.448,349.525 82.904 C 349.525 83.360,349.723 84.015,349.965 84.360 C 351.073 85.943,351.237 98.189,350.181 100.543 C 349.980 100.991,349.694 101.914,349.545 102.595 C 349.396 103.276,349.087 104.192,348.859 104.630 C 348.630 105.069,348.442 105.591,348.441 105.792 C 348.440 105.992,348.195 106.466,347.897 106.846 C 347.598 107.225,347.354 107.688,347.354 107.873 C 347.354 108.059,347.171 108.362,346.947 108.548 C 346.723 108.734,346.540 109.059,346.540 109.271 C 346.540 109.704,345.719 110.923,344.505 112.292 C 344.057 112.797,343.579 113.413,343.443 113.660 C 343.307 113.908,343.033 114.209,342.833 114.328 C 342.633 114.448,342.469 114.655,342.469 114.789 C 342.469 115.097,341.258 116.418,340.976 116.418 C 340.860 116.418,340.630 116.581,340.464 116.780 C 339.835 117.534,336.066 120.433,335.482 120.611 C 335.146 120.713,334.871 120.910,334.871 121.049 C 334.871 121.189,334.634 121.303,334.344 121.303 C 334.055 121.303,333.747 121.416,333.662 121.555 C 333.417 121.951,330.230 123.474,329.645 123.474 C 329.355 123.474,328.734 123.650,328.264 123.867 C 327.793 124.083,326.798 124.382,326.052 124.532 C 325.305 124.682,324.145 124.928,323.474 125.077 C 321.995 125.407,315.401 125.430,313.704 125.112 C 313.033 124.985,311.689 124.733,310.719 124.551 C 309.749 124.368,308.828 124.119,308.673 123.996 C 308.517 123.873,307.790 123.638,307.056 123.474 C 306.322 123.309,305.581 123.058,305.410 122.916 C 304.826 122.431,302.550 121.303,302.157 121.303 C 301.941 121.303,301.764 121.177,301.764 121.024 C 301.764 120.872,301.458 120.630,301.085 120.488 C 300.712 120.346,299.643 119.582,298.711 118.789 C 297.778 117.997,296.722 117.108,296.364 116.815 C 295.272 115.922,294.405 114.967,292.676 112.754 C 292.092 112.008,291.477 111.275,291.308 111.126 C 290.966 110.825,290.797 110.518,288.942 106.835 C 288.233 105.428,287.653 103.982,287.653 103.623 C 287.653 103.264,287.460 102.696,287.225 102.360 C 286.990 102.024,286.729 101.051,286.646 100.196 C 286.562 99.342,286.380 98.499,286.242 98.324 C 285.838 97.810,285.648 90.434,285.995 88.738 C 286.164 87.917,286.419 86.503,286.562 85.595 C 286.706 84.687,287.009 83.588,287.236 83.153 C 287.463 82.717,287.650 82.102,287.651 81.786 C 287.653 81.221,289.847 76.665,290.370 76.143 C 290.517 75.996,290.638 75.661,290.638 75.400 C 290.638 75.139,290.793 74.828,290.982 74.708 C 291.171 74.589,292.168 73.463,293.198 72.207 C 295.561 69.324,295.739 69.148,298.369 67.094 C 299.564 66.160,300.698 65.268,300.888 65.111 C 301.078 64.954,301.597 64.698,302.041 64.543 C 302.486 64.388,302.849 64.161,302.849 64.038 C 302.849 63.916,303.224 63.733,303.682 63.632 C 304.140 63.532,304.576 63.290,304.650 63.095 C 304.725 62.900,305.232 62.656,305.776 62.554 C 306.320 62.452,307.099 62.196,307.508 61.985 C 307.916 61.774,308.531 61.600,308.874 61.599 C 309.217 61.598,309.864 61.399,310.312 61.155 C 311.985 60.245,324.472 60.057,325.808 60.921 " stroke="none" fill="#fcdcae" fill-rule="evenodd"></path></g></svg>